<?xml version="1.0" encoding="utf-8" standalone="no"?>
<!DOCTYPE svg PUBLIC "-//W3C//DTD SVG 1.1//EN"
  "http://www.w3.org/Graphics/SVG/1.1/DTD/svg11.dtd">
<svg xmlns:xlink="http://www.w3.org/1999/xlink" width="390.517175pt" height="346.619375pt" viewBox="0 0 390.517175 346.619375" xmlns="http://www.w3.org/2000/svg" version="1.1">
 <metadata>
  <rdf:RDF xmlns:dc="http://purl.org/dc/elements/1.1/" xmlns:cc="http://creativecommons.org/ns#" xmlns:rdf="http://www.w3.org/1999/02/22-rdf-syntax-ns#">
   <cc:Work>
    <dc:type rdf:resource="http://purl.org/dc/dcmitype/StillImage"/>
    <dc:date>2026-05-28T09:57:08.556964</dc:date>
    <dc:format>image/svg+xml</dc:format>
    <dc:creator>
     <cc:Agent>
      <dc:title>Matplotlib v3.10.8, https://matplotlib.org/</dc:title>
     </cc:Agent>
    </dc:creator>
   </cc:Work>
  </rdf:RDF>
 </metadata>
 <defs>
  <style type="text/css">*{stroke-linejoin: round; stroke-linecap: butt}</style>
 </defs>
 <g id="figure_1">
  <g id="patch_1">
   <path d="M 0 346.619375 
L 390.517175 346.619375 
L 390.517175 0 
L 0 0 
z
" style="fill: #ffffff"/>
  </g>
  <g id="axes_1">
   <g id="patch_2">
    <path d="M 43.477175 290.810625 
L 383.317175 290.810625 
L 383.317175 45.290625 
L 43.477175 45.290625 
z
" style="fill: #ffffff"/>
   </g>
   <g id="FillBetweenPolyCollection_1">
    <defs>
     <path id="m8db751bbe0" d="M 104.513986 -89.4542 
L 84.630015 -89.4542 
L 84.538423 -90.217032 
L 84.472446 -90.979865 
L 84.432393 -91.742697 
L 84.418361 -92.505529 
L 84.430232 -93.268361 
L 84.467678 -94.031194 
L 84.530165 -94.794026 
L 84.616965 -95.556858 
L 84.727169 -96.319691 
L 84.859696 -97.082523 
L 85.013314 -97.845355 
L 85.186654 -98.608187 
L 85.378232 -99.37102 
L 85.586466 -100.133852 
L 85.809698 -100.896684 
L 86.046216 -101.659517 
L 86.294269 -102.422349 
L 86.552092 -103.185181 
L 86.817923 -103.948013 
L 87.090016 -104.710846 
L 87.366663 -105.473678 
L 87.646206 -106.23651 
L 87.927044 -106.999343 
L 88.207651 -107.762175 
L 88.486577 -108.525007 
L 88.762455 -109.287839 
L 89.034006 -110.050672 
L 89.300037 -110.813504 
L 89.55944 -111.576336 
L 89.811189 -112.339169 
L 90.054334 -113.102001 
L 90.287993 -113.864833 
L 90.511343 -114.627665 
L 90.723611 -115.390498 
L 90.92406 -116.15333 
L 91.111976 -116.916162 
L 91.286659 -117.678994 
L 91.447407 -118.441827 
L 91.593497 -119.204659 
L 91.724183 -119.967491 
L 91.838672 -120.730324 
L 91.936116 -121.493156 
L 92.015602 -122.255988 
L 92.076141 -123.01882 
L 92.116657 -123.781653 
L 92.135982 -124.544485 
L 92.132855 -125.307317 
L 92.105914 -126.07015 
L 92.053698 -126.832982 
L 91.974652 -127.595814 
L 91.867134 -128.358646 
L 91.729419 -129.121479 
L 91.559717 -129.884311 
L 91.356188 -130.647143 
L 91.116959 -131.409976 
L 90.84015 -132.172808 
L 90.523899 -132.93564 
L 90.166391 -133.698472 
L 89.765892 -134.461305 
L 89.320786 -135.224137 
L 88.82961 -135.986969 
L 88.291096 -136.749802 
L 87.704211 -137.512634 
L 87.068201 -138.275466 
L 86.382635 -139.038298 
L 85.647442 -139.801131 
L 84.862956 -140.563963 
L 84.029951 -141.326795 
L 83.149677 -142.089628 
L 82.223894 -142.85246 
L 81.254889 -143.615292 
L 80.245504 -144.378124 
L 79.199143 -145.140957 
L 78.11978 -145.903789 
L 77.011952 -146.666621 
L 75.88075 -147.429453 
L 74.731793 -148.192286 
L 73.571199 -148.955118 
L 72.405544 -149.71795 
L 71.241811 -150.480783 
L 70.087326 -151.243615 
L 68.949695 -152.006447 
L 67.836725 -152.769279 
L 66.75634 -153.532112 
L 65.716495 -154.294944 
L 64.725078 -155.057776 
L 63.789819 -155.820609 
L 62.918189 -156.583441 
L 62.117304 -157.346273 
L 61.393834 -158.109105 
L 60.753908 -158.871938 
L 60.20303 -159.63477 
L 59.746006 -160.397602 
L 59.386869 -161.160435 
L 59.128826 -161.923267 
L 58.974211 -162.686099 
L 58.924448 -163.448931 
L 58.980032 -164.211764 
L 59.140522 -164.974596 
L 130.003479 -164.974596 
L 130.003479 -164.974596 
L 130.163969 -164.211764 
L 130.219553 -163.448931 
L 130.169789 -162.686099 
L 130.015174 -161.923267 
L 129.757132 -161.160435 
L 129.397994 -160.397602 
L 128.94097 -159.63477 
L 128.390092 -158.871938 
L 127.750166 -158.109105 
L 127.026696 -157.346273 
L 126.225812 -156.583441 
L 125.354181 -155.820609 
L 124.418922 -155.057776 
L 123.427505 -154.294944 
L 122.38766 -153.532112 
L 121.307276 -152.769279 
L 120.194306 -152.006447 
L 119.056675 -151.243615 
L 117.90219 -150.480783 
L 116.738456 -149.71795 
L 115.572801 -148.955118 
L 114.412208 -148.192286 
L 113.26325 -147.429453 
L 112.132048 -146.666621 
L 111.02422 -145.903789 
L 109.944857 -145.140957 
L 108.898496 -144.378124 
L 107.889111 -143.615292 
L 106.920107 -142.85246 
L 105.994323 -142.089628 
L 105.11405 -141.326795 
L 104.281045 -140.563963 
L 103.496558 -139.801131 
L 102.761365 -139.038298 
L 102.075799 -138.275466 
L 101.43979 -137.512634 
L 100.852905 -136.749802 
L 100.31439 -135.986969 
L 99.823214 -135.224137 
L 99.378108 -134.461305 
L 98.97761 -133.698472 
L 98.620101 -132.93564 
L 98.30385 -132.172808 
L 98.027041 -131.409976 
L 97.787812 -130.647143 
L 97.584283 -129.884311 
L 97.414582 -129.121479 
L 97.276867 -128.358646 
L 97.169348 -127.595814 
L 97.090303 -126.832982 
L 97.038087 -126.07015 
L 97.011145 -125.307317 
L 97.008018 -124.544485 
L 97.027344 -123.781653 
L 97.067859 -123.01882 
L 97.128398 -122.255988 
L 97.207884 -121.493156 
L 97.305329 -120.730324 
L 97.419817 -119.967491 
L 97.550503 -119.204659 
L 97.696594 -118.441827 
L 97.857341 -117.678994 
L 98.032024 -116.916162 
L 98.219941 -116.15333 
L 98.420389 -115.390498 
L 98.632657 -114.627665 
L 98.856007 -113.864833 
L 99.089666 -113.102001 
L 99.332811 -112.339169 
L 99.584561 -111.576336 
L 99.843964 -110.813504 
L 100.109994 -110.050672 
L 100.381546 -109.287839 
L 100.657424 -108.525007 
L 100.93635 -107.762175 
L 101.216956 -106.999343 
L 101.497795 -106.23651 
L 101.777337 -105.473678 
L 102.053985 -104.710846 
L 102.326078 -103.948013 
L 102.591908 -103.185181 
L 102.849731 -102.422349 
L 103.097785 -101.659517 
L 103.334302 -100.896684 
L 103.557535 -100.133852 
L 103.765769 -99.37102 
L 103.957346 -98.608187 
L 104.130686 -97.845355 
L 104.284304 -97.082523 
L 104.416831 -96.319691 
L 104.527035 -95.556858 
L 104.613836 -94.794026 
L 104.676323 -94.031194 
L 104.713768 -93.268361 
L 104.725639 -92.505529 
L 104.711608 -91.742697 
L 104.671555 -90.979865 
L 104.605577 -90.217032 
L 104.513986 -89.4542 
z
" style="stroke: #ffffff; stroke-width: 0.5"/>
    </defs>
    <g clip-path="url(#paa6fd71a7c)">
     <use xlink:href="#m8db751bbe0" x="0" y="346.619375" style="fill: #c46b83; stroke: #ffffff; stroke-width: 0.5"/>
    </g>
   </g>
   <g id="FillBetweenPolyCollection_2">
    <defs>
     <path id="mf5108c806e" d="M 213.825762 -86.651013 
L 212.968588 -86.651013 
L 212.974436 -87.446909 
L 212.991506 -88.242806 
L 213.018438 -89.038702 
L 213.053166 -89.834599 
L 213.093179 -90.630495 
L 213.135819 -91.426392 
L 213.178569 -92.222288 
L 213.219281 -93.018185 
L 213.256335 -93.814081 
L 213.288692 -94.609978 
L 213.315879 -95.405874 
L 213.337898 -96.201771 
L 213.355115 -96.997667 
L 213.368118 -97.793564 
L 213.377598 -98.58946 
L 213.384246 -99.385357 
L 213.388674 -100.181253 
L 213.391363 -100.97715 
L 213.392623 -101.773046 
L 213.392561 -102.568943 
L 213.391042 -103.364839 
L 213.387642 -104.160736 
L 213.381586 -104.956632 
L 213.371673 -105.752529 
L 213.356196 -106.548425 
L 213.332886 -107.344321 
L 213.298888 -108.140218 
L 213.250815 -108.936114 
L 213.184897 -109.732011 
L 213.097252 -110.527907 
L 212.984266 -111.323804 
L 212.843055 -112.1197 
L 212.671946 -112.915597 
L 212.470867 -113.711493 
L 212.24153 -114.50739 
L 211.987306 -115.303286 
L 211.712705 -116.099183 
L 211.422459 -116.895079 
L 211.120295 -117.690976 
L 210.807553 -118.486872 
L 210.481916 -119.282769 
L 210.136497 -120.078665 
L 209.759535 -120.874562 
L 209.334837 -121.670458 
L 208.842968 -122.466355 
L 208.263012 -123.262251 
L 207.574603 -124.058148 
L 206.75981 -124.854044 
L 205.804489 -125.649941 
L 204.698812 -126.445837 
L 203.436919 -127.241734 
L 202.015934 -128.03763 
L 200.434844 -128.833527 
L 198.693944 -129.629423 
L 196.79555 -130.42532 
L 194.746424 -131.221216 
L 192.561911 -132.017113 
L 190.271169 -132.813009 
L 187.922289 -133.608906 
L 185.585725 -134.404802 
L 183.354495 -135.200699 
L 181.340038 -135.996595 
L 179.663536 -136.792492 
L 178.443545 -137.588388 
L 177.781792 -138.384285 
L 177.749623 -139.180181 
L 178.377637 -139.976078 
L 179.650489 -140.771974 
L 181.507809 -141.567871 
L 183.850977 -142.363767 
L 186.554368 -143.159664 
L 189.478934 -143.95556 
L 192.485833 -144.751457 
L 195.448078 -145.547353 
L 198.258838 -146.34325 
L 200.835882 -147.139146 
L 203.122323 -147.935043 
L 205.084418 -148.730939 
L 206.707423 -149.526836 
L 207.990538 -150.322732 
L 208.941869 -151.118629 
L 209.574131 -151.914525 
L 209.901592 -152.710422 
L 209.938552 -153.506318 
L 209.699451 -154.302215 
L 209.200471 -155.098111 
L 208.462271 -155.894008 
L 207.513266 -156.689904 
L 206.39268 -157.485801 
L 205.15252 -158.281697 
L 203.857721 -159.077594 
L 202.583939 -159.87349 
L 201.412915 -160.669387 
L 200.425802 -161.465283 
L 199.695344 -162.26118 
L 199.278093 -163.057076 
L 199.207999 -163.852973 
L 199.492479 -164.648869 
L 200.111705 -165.444765 
L 226.682645 -165.444765 
L 226.682645 -165.444765 
L 227.301871 -164.648869 
L 227.586351 -163.852973 
L 227.516257 -163.057076 
L 227.099006 -162.26118 
L 226.368548 -161.465283 
L 225.381435 -160.669387 
L 224.210411 -159.87349 
L 222.936629 -159.077594 
L 221.64183 -158.281697 
L 220.40167 -157.485801 
L 219.281084 -156.689904 
L 218.332079 -155.894008 
L 217.593879 -155.098111 
L 217.094899 -154.302215 
L 216.855798 -153.506318 
L 216.892758 -152.710422 
L 217.220219 -151.914525 
L 217.852481 -151.118629 
L 218.803812 -150.322732 
L 220.086927 -149.526836 
L 221.709932 -148.730939 
L 223.672027 -147.935043 
L 225.958468 -147.139146 
L 228.535512 -146.34325 
L 231.346272 -145.547353 
L 234.308517 -144.751457 
L 237.315416 -143.95556 
L 240.239982 -143.159664 
L 242.943373 -142.363767 
L 245.286541 -141.567871 
L 247.143861 -140.771974 
L 248.416713 -139.976078 
L 249.044727 -139.180181 
L 249.012558 -138.384285 
L 248.350805 -137.588388 
L 247.130814 -136.792492 
L 245.454312 -135.996595 
L 243.439855 -135.200699 
L 241.208625 -134.404802 
L 238.872061 -133.608906 
L 236.523181 -132.813009 
L 234.232439 -132.017113 
L 232.047926 -131.221216 
L 229.9988 -130.42532 
L 228.100406 -129.629423 
L 226.359506 -128.833527 
L 224.778416 -128.03763 
L 223.357431 -127.241734 
L 222.095538 -126.445837 
L 220.989861 -125.649941 
L 220.03454 -124.854044 
L 219.219747 -124.058148 
L 218.531338 -123.262251 
L 217.951382 -122.466355 
L 217.459513 -121.670458 
L 217.034815 -120.874562 
L 216.657853 -120.078665 
L 216.312434 -119.282769 
L 215.986797 -118.486872 
L 215.674055 -117.690976 
L 215.371891 -116.895079 
L 215.081645 -116.099183 
L 214.807044 -115.303286 
L 214.55282 -114.50739 
L 214.323483 -113.711493 
L 214.122404 -112.915597 
L 213.951295 -112.1197 
L 213.810084 -111.323804 
L 213.697098 -110.527907 
L 213.609453 -109.732011 
L 213.543535 -108.936114 
L 213.495462 -108.140218 
L 213.461464 -107.344321 
L 213.438154 -106.548425 
L 213.422677 -105.752529 
L 213.412764 -104.956632 
L 213.406708 -104.160736 
L 213.403308 -103.364839 
L 213.401789 -102.568943 
L 213.401727 -101.773046 
L 213.402987 -100.97715 
L 213.405676 -100.181253 
L 213.410104 -99.385357 
L 213.416752 -98.58946 
L 213.426232 -97.793564 
L 213.439235 -96.997667 
L 213.456452 -96.201771 
L 213.478471 -95.405874 
L 213.505658 -94.609978 
L 213.538015 -93.814081 
L 213.575069 -93.018185 
L 213.615781 -92.222288 
L 213.658531 -91.426392 
L 213.701171 -90.630495 
L 213.741184 -89.834599 
L 213.775912 -89.038702 
L 213.802844 -88.242806 
L 213.819914 -87.446909 
L 213.825762 -86.651013 
z
" style="stroke: #ffffff; stroke-width: 0.5"/>
    </defs>
    <g clip-path="url(#paa6fd71a7c)">
     <use xlink:href="#mf5108c806e" x="0" y="346.619375" style="fill: #93aacd; stroke: #ffffff; stroke-width: 0.5"/>
    </g>
   </g>
   <g id="FillBetweenPolyCollection_3">
    <defs>
     <path id="m6b577b6a0c" d="M 332.550618 -65.62955 
L 331.894081 -65.62955 
L 331.90133 -67.61355 
L 331.92391 -69.59755 
L 331.956726 -71.58155 
L 331.992837 -73.56555 
L 332.024848 -75.54955 
L 332.046165 -77.53355 
L 332.051758 -79.51755 
L 332.038318 -81.50155 
L 332.00394 -83.48555 
L 331.947668 -85.46955 
L 331.86925 -87.45355 
L 331.769384 -89.43755 
L 331.650407 -91.42155 
L 331.517105 -93.40555 
L 331.376997 -95.38955 
L 331.239513 -97.37355 
L 331.113799 -99.35755 
L 331.005543 -101.34155 
L 330.913734 -103.32555 
L 330.828518 -105.30955 
L 330.73091 -107.29355 
L 330.59449 -109.27755 
L 330.388526 -111.26155 
L 330.08172 -113.24555 
L 329.646023 -115.22955 
L 329.060346 -117.21355 
L 328.314181 -119.19755 
L 327.410886 -121.18155 
L 326.369782 -123.16555 
L 325.225873 -125.14955 
L 324.026239 -127.13355 
L 322.82316 -129.11755 
L 321.665288 -131.10155 
L 320.589114 -133.08555 
L 319.613031 -135.06955 
L 318.735461 -137.05355 
L 317.937263 -139.03755 
L 317.187446 -141.02155 
L 316.450492 -143.00555 
L 315.693314 -144.98955 
L 314.890118 -146.97355 
L 314.024088 -148.95755 
L 313.085975 -150.94155 
L 312.070827 -152.92555 
L 310.974794 -154.90955 
L 309.793616 -156.89355 
L 308.523298 -158.87755 
L 307.162501 -160.86155 
L 305.716049 -162.84555 
L 304.199425 -164.82955 
L 302.644267 -166.81355 
L 301.103639 -168.79755 
L 299.653906 -170.78155 
L 298.389268 -172.76555 
L 297.407199 -174.74955 
L 296.787806 -176.73355 
L 296.574797 -178.71755 
L 296.766558 -180.70155 
L 297.321641 -182.68555 
L 298.17574 -184.66955 
L 299.261695 -186.65355 
L 300.523653 -188.63755 
L 301.921419 -190.62155 
L 303.427333 -192.60555 
L 305.021531 -194.58955 
L 306.689868 -196.57355 
L 308.424274 -198.55755 
L 310.221739 -200.54155 
L 312.078649 -202.52555 
L 313.981269 -204.50955 
L 315.897467 -206.49355 
L 317.775504 -208.47755 
L 319.552071 -210.46155 
L 321.166095 -212.44555 
L 322.571288 -214.42955 
L 323.741381 -216.41355 
L 324.666908 -218.39755 
L 325.347763 -220.38155 
L 325.78816 -222.36555 
L 325.998508 -224.34955 
L 326.003589 -226.33355 
L 325.851557 -228.31755 
L 325.616524 -230.30155 
L 325.390136 -232.28555 
L 325.262965 -234.26955 
L 325.302065 -236.25355 
L 325.533574 -238.23755 
L 325.937565 -240.22155 
L 326.457262 -242.20555 
L 327.018821 -244.18955 
L 327.553953 -246.17355 
L 328.01737 -248.15755 
L 328.394089 -250.14155 
L 328.696186 -252.12555 
L 328.952378 -254.10955 
L 329.195464 -256.09355 
L 329.451975 -258.07755 
L 329.736346 -260.06155 
L 330.049798 -262.04555 
L 334.394902 -262.04555 
L 334.394902 -262.04555 
L 334.708353 -260.06155 
L 334.992724 -258.07755 
L 335.249235 -256.09355 
L 335.492322 -254.10955 
L 335.748514 -252.12555 
L 336.050611 -250.14155 
L 336.42733 -248.15755 
L 336.890746 -246.17355 
L 337.425878 -244.18955 
L 337.987438 -242.20555 
L 338.507135 -240.22155 
L 338.911126 -238.23755 
L 339.142635 -236.25355 
L 339.181735 -234.26955 
L 339.054564 -232.28555 
L 338.828176 -230.30155 
L 338.593143 -228.31755 
L 338.44111 -226.33355 
L 338.446192 -224.34955 
L 338.656539 -222.36555 
L 339.096937 -220.38155 
L 339.777792 -218.39755 
L 340.703319 -216.41355 
L 341.873412 -214.42955 
L 343.278605 -212.44555 
L 344.892629 -210.46155 
L 346.669196 -208.47755 
L 348.547233 -206.49355 
L 350.463431 -204.50955 
L 352.366051 -202.52555 
L 354.22296 -200.54155 
L 356.020426 -198.55755 
L 357.754832 -196.57355 
L 359.423169 -194.58955 
L 361.017367 -192.60555 
L 362.523281 -190.62155 
L 363.921046 -188.63755 
L 365.183005 -186.65355 
L 366.268959 -184.66955 
L 367.123059 -182.68555 
L 367.678141 -180.70155 
L 367.869902 -178.71755 
L 367.656893 -176.73355 
L 367.037501 -174.74955 
L 366.055431 -172.76555 
L 364.790794 -170.78155 
L 363.34106 -168.79755 
L 361.800433 -166.81355 
L 360.245275 -164.82955 
L 358.728651 -162.84555 
L 357.282198 -160.86155 
L 355.921402 -158.87755 
L 354.651083 -156.89355 
L 353.469905 -154.90955 
L 352.373873 -152.92555 
L 351.358724 -150.94155 
L 350.420612 -148.95755 
L 349.554582 -146.97355 
L 348.751386 -144.98955 
L 347.994208 -143.00555 
L 347.257254 -141.02155 
L 346.507437 -139.03755 
L 345.709238 -137.05355 
L 344.831668 -135.06955 
L 343.855585 -133.08555 
L 342.779412 -131.10155 
L 341.62154 -129.11755 
L 340.41846 -127.13355 
L 339.218826 -125.14955 
L 338.074917 -123.16555 
L 337.033814 -121.18155 
L 336.130519 -119.19755 
L 335.384354 -117.21355 
L 334.798676 -115.22955 
L 334.36298 -113.24555 
L 334.056174 -111.26155 
L 333.85021 -109.27755 
L 333.71379 -107.29355 
L 333.616182 -105.30955 
L 333.530965 -103.32555 
L 333.439157 -101.34155 
L 333.3309 -99.35755 
L 333.205187 -97.37355 
L 333.067703 -95.38955 
L 332.927595 -93.40555 
L 332.794293 -91.42155 
L 332.675316 -89.43755 
L 332.575449 -87.45355 
L 332.497032 -85.46955 
L 332.440759 -83.48555 
L 332.406381 -81.50155 
L 332.392941 -79.51755 
L 332.398535 -77.53355 
L 332.419852 -75.54955 
L 332.451862 -73.56555 
L 332.487973 -71.58155 
L 332.52079 -69.59755 
L 332.54337 -67.61355 
L 332.550618 -65.62955 
z
" style="stroke: #ffffff; stroke-width: 0.5"/>
    </defs>
    <g clip-path="url(#paa6fd71a7c)">
     <use xlink:href="#m6b577b6a0c" x="0" y="346.619375" style="fill: #f3ce9d; stroke: #ffffff; stroke-width: 0.5"/>
    </g>
   </g>
   <g id="matplotlib.axis_1">
    <g id="xtick_1">
     <g id="line2d_1">
      <defs>
       <path id="m4e1fb731ef" d="M 0 0 
L 0 3.5 
" style="stroke: #000000; stroke-width: 0.8"/>
      </defs>
      <g>
       <use xlink:href="#m4e1fb731ef" x="94.572" y="290.810625" style="stroke: #000000; stroke-width: 0.8"/>
      </g>
     </g>
     <g id="text_1">
      <!-- Gallus -->
      <g transform="translate(68.462625 314.198125) scale(0.2 -0.2)">
       <defs>
        <path id="TimesNewRomanPSMT-47" d="M 3928 4334 
L 4038 2997 
L 3928 2997 
Q 3763 3497 3500 3750 
Q 3122 4116 2528 4116 
Q 1719 4116 1297 3475 
Q 944 2934 944 2188 
Q 944 1581 1178 1081 
Q 1413 581 1792 348 
Q 2172 116 2572 116 
Q 2806 116 3025 175 
Q 3244 234 3447 350 
L 3447 1575 
Q 3447 1894 3398 1992 
Q 3350 2091 3248 2142 
Q 3147 2194 2891 2194 
L 2891 2313 
L 4531 2313 
L 4531 2194 
L 4453 2194 
Q 4209 2194 4119 2031 
Q 4056 1916 4056 1575 
L 4056 278 
Q 3697 84 3347 -6 
Q 2997 -97 2569 -97 
Q 1341 -97 703 691 
Q 225 1281 225 2053 
Q 225 2613 494 3125 
Q 813 3734 1369 4063 
Q 1834 4334 2469 4334 
Q 2700 4334 2889 4296 
Q 3078 4259 3425 4131 
Q 3600 4066 3659 4066 
Q 3719 4066 3761 4120 
Q 3803 4175 3813 4334 
L 3928 4334 
z
" transform="scale(0.015625)"/>
        <path id="TimesNewRomanPSMT-61" d="M 1822 413 
Q 1381 72 1269 19 
Q 1100 -59 909 -59 
Q 613 -59 420 144 
Q 228 347 228 678 
Q 228 888 322 1041 
Q 450 1253 767 1440 
Q 1084 1628 1822 1897 
L 1822 2009 
Q 1822 2438 1686 2597 
Q 1550 2756 1291 2756 
Q 1094 2756 978 2650 
Q 859 2544 859 2406 
L 866 2225 
Q 866 2081 792 2003 
Q 719 1925 600 1925 
Q 484 1925 411 2006 
Q 338 2088 338 2228 
Q 338 2497 613 2722 
Q 888 2947 1384 2947 
Q 1766 2947 2009 2819 
Q 2194 2722 2281 2516 
Q 2338 2381 2338 1966 
L 2338 994 
Q 2338 584 2353 492 
Q 2369 400 2405 369 
Q 2441 338 2488 338 
Q 2538 338 2575 359 
Q 2641 400 2828 588 
L 2828 413 
Q 2478 -56 2159 -56 
Q 2006 -56 1915 50 
Q 1825 156 1822 413 
z
M 1822 616 
L 1822 1706 
Q 1350 1519 1213 1441 
Q 966 1303 859 1153 
Q 753 1003 753 825 
Q 753 600 887 451 
Q 1022 303 1197 303 
Q 1434 303 1822 616 
z
" transform="scale(0.015625)"/>
        <path id="TimesNewRomanPSMT-6c" d="M 1184 4444 
L 1184 647 
Q 1184 378 1223 290 
Q 1263 203 1344 158 
Q 1425 113 1647 113 
L 1647 0 
L 244 0 
L 244 113 
Q 441 113 512 153 
Q 584 194 625 287 
Q 666 381 666 647 
L 666 3247 
Q 666 3731 644 3842 
Q 622 3953 573 3993 
Q 525 4034 450 4034 
Q 369 4034 244 3984 
L 191 4094 
L 1044 4444 
L 1184 4444 
z
" transform="scale(0.015625)"/>
        <path id="TimesNewRomanPSMT-75" d="M 2709 2863 
L 2709 1128 
Q 2709 631 2732 520 
Q 2756 409 2807 365 
Q 2859 322 2928 322 
Q 3025 322 3147 375 
L 3191 266 
L 2334 -88 
L 2194 -88 
L 2194 519 
Q 1825 119 1631 15 
Q 1438 -88 1222 -88 
Q 981 -88 804 51 
Q 628 191 559 409 
Q 491 628 491 1028 
L 491 2306 
Q 491 2509 447 2587 
Q 403 2666 317 2708 
Q 231 2750 6 2747 
L 6 2863 
L 1009 2863 
L 1009 947 
Q 1009 547 1148 422 
Q 1288 297 1484 297 
Q 1619 297 1789 381 
Q 1959 466 2194 703 
L 2194 2325 
Q 2194 2569 2105 2655 
Q 2016 2741 1734 2747 
L 1734 2863 
L 2709 2863 
z
" transform="scale(0.015625)"/>
        <path id="TimesNewRomanPSMT-73" d="M 2050 2947 
L 2050 1972 
L 1947 1972 
Q 1828 2431 1642 2597 
Q 1456 2763 1169 2763 
Q 950 2763 815 2647 
Q 681 2531 681 2391 
Q 681 2216 781 2091 
Q 878 1963 1175 1819 
L 1631 1597 
Q 2266 1288 2266 781 
Q 2266 391 1970 151 
Q 1675 -88 1309 -88 
Q 1047 -88 709 6 
Q 606 38 541 38 
Q 469 38 428 -44 
L 325 -44 
L 325 978 
L 428 978 
Q 516 541 762 319 
Q 1009 97 1316 97 
Q 1531 97 1667 223 
Q 1803 350 1803 528 
Q 1803 744 1651 891 
Q 1500 1038 1047 1263 
Q 594 1488 453 1669 
Q 313 1847 313 2119 
Q 313 2472 555 2709 
Q 797 2947 1181 2947 
Q 1350 2947 1591 2875 
Q 1750 2828 1803 2828 
Q 1853 2828 1881 2850 
Q 1909 2872 1947 2947 
L 2050 2947 
z
" transform="scale(0.015625)"/>
       </defs>
       <use xlink:href="#TimesNewRomanPSMT-47"/>
       <use xlink:href="#TimesNewRomanPSMT-61" transform="translate(72.216797 0)"/>
       <use xlink:href="#TimesNewRomanPSMT-6c" transform="translate(116.601562 0)"/>
       <use xlink:href="#TimesNewRomanPSMT-6c" transform="translate(144.384766 0)"/>
       <use xlink:href="#TimesNewRomanPSMT-75" transform="translate(172.167969 0)"/>
       <use xlink:href="#TimesNewRomanPSMT-73" transform="translate(222.167969 0)"/>
      </g>
      <!-- (n=50) -->
      <g transform="translate(67.273563 335.14125) scale(0.2 -0.2)">
       <defs>
        <path id="TimesNewRomanPSMT-28" d="M 1988 -1253 
L 1988 -1369 
Q 1516 -1131 1200 -813 
Q 750 -359 506 256 
Q 263 872 263 1534 
Q 263 2503 741 3301 
Q 1219 4100 1988 4444 
L 1988 4313 
Q 1603 4100 1356 3731 
Q 1109 3363 987 2797 
Q 866 2231 866 1616 
Q 866 947 969 400 
Q 1050 -31 1165 -292 
Q 1281 -553 1476 -793 
Q 1672 -1034 1988 -1253 
z
" transform="scale(0.015625)"/>
        <path id="TimesNewRomanPSMT-6e" d="M 1034 2341 
Q 1538 2947 1994 2947 
Q 2228 2947 2397 2830 
Q 2566 2713 2666 2444 
Q 2734 2256 2734 1869 
L 2734 647 
Q 2734 375 2778 278 
Q 2813 200 2889 156 
Q 2966 113 3172 113 
L 3172 0 
L 1756 0 
L 1756 113 
L 1816 113 
Q 2016 113 2095 173 
Q 2175 234 2206 353 
Q 2219 400 2219 647 
L 2219 1819 
Q 2219 2209 2117 2386 
Q 2016 2563 1775 2563 
Q 1403 2563 1034 2156 
L 1034 647 
Q 1034 356 1069 288 
Q 1113 197 1189 155 
Q 1266 113 1500 113 
L 1500 0 
L 84 0 
L 84 113 
L 147 113 
Q 366 113 442 223 
Q 519 334 519 647 
L 519 1709 
Q 519 2225 495 2337 
Q 472 2450 423 2490 
Q 375 2531 294 2531 
Q 206 2531 84 2484 
L 38 2597 
L 900 2947 
L 1034 2947 
L 1034 2341 
z
" transform="scale(0.015625)"/>
        <path id="TimesNewRomanPSMT-3d" d="M 116 2759 
L 3488 2759 
L 3488 2503 
L 116 2503 
L 116 2759 
z
M 116 1741 
L 3488 1741 
L 3488 1484 
L 116 1484 
L 116 1741 
z
" transform="scale(0.015625)"/>
        <path id="TimesNewRomanPSMT-35" d="M 2778 4238 
L 2534 3706 
L 1259 3706 
L 981 3138 
Q 1809 3016 2294 2522 
Q 2709 2097 2709 1522 
Q 2709 1188 2573 903 
Q 2438 619 2231 419 
Q 2025 219 1772 97 
Q 1413 -75 1034 -75 
Q 653 -75 479 54 
Q 306 184 306 341 
Q 306 428 378 495 
Q 450 563 559 563 
Q 641 563 702 538 
Q 763 513 909 409 
Q 1144 247 1384 247 
Q 1750 247 2026 523 
Q 2303 800 2303 1197 
Q 2303 1581 2056 1914 
Q 1809 2247 1375 2428 
Q 1034 2569 447 2591 
L 1259 4238 
L 2778 4238 
z
" transform="scale(0.015625)"/>
        <path id="TimesNewRomanPSMT-30" d="M 231 2094 
Q 231 2819 450 3342 
Q 669 3866 1031 4122 
Q 1313 4325 1613 4325 
Q 2100 4325 2488 3828 
Q 2972 3213 2972 2159 
Q 2972 1422 2759 906 
Q 2547 391 2217 158 
Q 1888 -75 1581 -75 
Q 975 -75 572 641 
Q 231 1244 231 2094 
z
M 844 2016 
Q 844 1141 1059 588 
Q 1238 122 1591 122 
Q 1759 122 1940 273 
Q 2122 425 2216 781 
Q 2359 1319 2359 2297 
Q 2359 3022 2209 3506 
Q 2097 3866 1919 4016 
Q 1791 4119 1609 4119 
Q 1397 4119 1231 3928 
Q 1006 3669 925 3112 
Q 844 2556 844 2016 
z
" transform="scale(0.015625)"/>
        <path id="TimesNewRomanPSMT-29" d="M 144 4313 
L 144 4444 
Q 619 4209 934 3891 
Q 1381 3434 1625 2820 
Q 1869 2206 1869 1541 
Q 1869 572 1392 -226 
Q 916 -1025 144 -1369 
L 144 -1253 
Q 528 -1038 776 -670 
Q 1025 -303 1145 264 
Q 1266 831 1266 1447 
Q 1266 2113 1163 2663 
Q 1084 3094 967 3353 
Q 850 3613 656 3853 
Q 463 4094 144 4313 
z
" transform="scale(0.015625)"/>
       </defs>
       <use xlink:href="#TimesNewRomanPSMT-28"/>
       <use xlink:href="#TimesNewRomanPSMT-6e" transform="translate(33.300781 0)"/>
       <use xlink:href="#TimesNewRomanPSMT-3d" transform="translate(83.300781 0)"/>
       <use xlink:href="#TimesNewRomanPSMT-35" transform="translate(139.697266 0)"/>
       <use xlink:href="#TimesNewRomanPSMT-30" transform="translate(189.697266 0)"/>
       <use xlink:href="#TimesNewRomanPSMT-29" transform="translate(239.697266 0)"/>
      </g>
     </g>
    </g>
    <g id="xtick_2">
     <g id="line2d_2">
      <g>
       <use xlink:href="#m4e1fb731ef" x="213.397175" y="290.810625" style="stroke: #000000; stroke-width: 0.8"/>
      </g>
     </g>
     <g id="text_2">
      <!-- Anas -->
      <g transform="translate(192.84405 314.198125) scale(0.2 -0.2)">
       <defs>
        <path id="TimesNewRomanPSMT-41" d="M 2928 1419 
L 1288 1419 
L 1000 750 
Q 894 503 894 381 
Q 894 284 986 211 
Q 1078 138 1384 116 
L 1384 0 
L 50 0 
L 50 116 
Q 316 163 394 238 
Q 553 388 747 847 
L 2238 4334 
L 2347 4334 
L 3822 809 
Q 4000 384 4145 257 
Q 4291 131 4550 116 
L 4550 0 
L 2878 0 
L 2878 116 
Q 3131 128 3220 200 
Q 3309 272 3309 375 
Q 3309 513 3184 809 
L 2928 1419 
z
M 2841 1650 
L 2122 3363 
L 1384 1650 
L 2841 1650 
z
" transform="scale(0.015625)"/>
       </defs>
       <use xlink:href="#TimesNewRomanPSMT-41"/>
       <use xlink:href="#TimesNewRomanPSMT-6e" transform="translate(72.216797 0)"/>
       <use xlink:href="#TimesNewRomanPSMT-61" transform="translate(122.216797 0)"/>
       <use xlink:href="#TimesNewRomanPSMT-73" transform="translate(166.601562 0)"/>
      </g>
      <!-- (n=150) -->
      <g transform="translate(181.098738 335.14125) scale(0.2 -0.2)">
       <defs>
        <path id="TimesNewRomanPSMT-31" d="M 750 3822 
L 1781 4325 
L 1884 4325 
L 1884 747 
Q 1884 391 1914 303 
Q 1944 216 2037 169 
Q 2131 122 2419 116 
L 2419 0 
L 825 0 
L 825 116 
Q 1125 122 1212 167 
Q 1300 213 1334 289 
Q 1369 366 1369 747 
L 1369 3034 
Q 1369 3497 1338 3628 
Q 1316 3728 1258 3775 
Q 1200 3822 1119 3822 
Q 1003 3822 797 3725 
L 750 3822 
z
" transform="scale(0.015625)"/>
       </defs>
       <use xlink:href="#TimesNewRomanPSMT-28"/>
       <use xlink:href="#TimesNewRomanPSMT-6e" transform="translate(33.300781 0)"/>
       <use xlink:href="#TimesNewRomanPSMT-3d" transform="translate(83.300781 0)"/>
       <use xlink:href="#TimesNewRomanPSMT-31" transform="translate(139.697266 0)"/>
       <use xlink:href="#TimesNewRomanPSMT-35" transform="translate(189.697266 0)"/>
       <use xlink:href="#TimesNewRomanPSMT-30" transform="translate(239.697266 0)"/>
       <use xlink:href="#TimesNewRomanPSMT-29" transform="translate(289.697266 0)"/>
      </g>
     </g>
    </g>
    <g id="xtick_3">
     <g id="line2d_3">
      <g>
       <use xlink:href="#m4e1fb731ef" x="332.22235" y="290.810625" style="stroke: #000000; stroke-width: 0.8"/>
      </g>
     </g>
     <g id="text_3">
      <!-- Columba -->
      <g transform="translate(295.556725 314.198125) scale(0.2 -0.2)">
       <defs>
        <path id="TimesNewRomanPSMT-43" d="M 3853 4334 
L 3950 2894 
L 3853 2894 
Q 3659 3541 3300 3825 
Q 2941 4109 2438 4109 
Q 2016 4109 1675 3895 
Q 1334 3681 1139 3212 
Q 944 2744 944 2047 
Q 944 1472 1128 1050 
Q 1313 628 1683 403 
Q 2053 178 2528 178 
Q 2941 178 3256 354 
Q 3572 531 3950 1056 
L 4047 994 
Q 3728 428 3303 165 
Q 2878 -97 2294 -97 
Q 1241 -97 663 684 
Q 231 1266 231 2053 
Q 231 2688 515 3219 
Q 800 3750 1298 4042 
Q 1797 4334 2388 4334 
Q 2847 4334 3294 4109 
Q 3425 4041 3481 4041 
Q 3566 4041 3628 4100 
Q 3709 4184 3744 4334 
L 3853 4334 
z
" transform="scale(0.015625)"/>
        <path id="TimesNewRomanPSMT-6f" d="M 1600 2947 
Q 2250 2947 2644 2453 
Q 2978 2031 2978 1484 
Q 2978 1100 2793 706 
Q 2609 313 2286 112 
Q 1963 -88 1566 -88 
Q 919 -88 538 428 
Q 216 863 216 1403 
Q 216 1797 411 2186 
Q 606 2575 925 2761 
Q 1244 2947 1600 2947 
z
M 1503 2744 
Q 1338 2744 1170 2645 
Q 1003 2547 900 2300 
Q 797 2053 797 1666 
Q 797 1041 1045 587 
Q 1294 134 1700 134 
Q 2003 134 2200 384 
Q 2397 634 2397 1244 
Q 2397 2006 2069 2444 
Q 1847 2744 1503 2744 
z
" transform="scale(0.015625)"/>
        <path id="TimesNewRomanPSMT-6d" d="M 1050 2338 
Q 1363 2650 1419 2697 
Q 1559 2816 1721 2881 
Q 1884 2947 2044 2947 
Q 2313 2947 2506 2790 
Q 2700 2634 2766 2338 
Q 3088 2713 3309 2830 
Q 3531 2947 3766 2947 
Q 3994 2947 4170 2830 
Q 4347 2713 4450 2447 
Q 4519 2266 4519 1878 
L 4519 647 
Q 4519 378 4559 278 
Q 4591 209 4675 161 
Q 4759 113 4950 113 
L 4950 0 
L 3538 0 
L 3538 113 
L 3597 113 
Q 3781 113 3884 184 
Q 3956 234 3988 344 
Q 4000 397 4000 647 
L 4000 1878 
Q 4000 2228 3916 2372 
Q 3794 2572 3525 2572 
Q 3359 2572 3192 2489 
Q 3025 2406 2788 2181 
L 2781 2147 
L 2788 2013 
L 2788 647 
Q 2788 353 2820 281 
Q 2853 209 2943 161 
Q 3034 113 3253 113 
L 3253 0 
L 1806 0 
L 1806 113 
Q 2044 113 2133 169 
Q 2222 225 2256 338 
Q 2272 391 2272 647 
L 2272 1878 
Q 2272 2228 2169 2381 
Q 2031 2581 1784 2581 
Q 1616 2581 1450 2491 
Q 1191 2353 1050 2181 
L 1050 647 
Q 1050 366 1089 281 
Q 1128 197 1204 155 
Q 1281 113 1516 113 
L 1516 0 
L 100 0 
L 100 113 
Q 297 113 375 155 
Q 453 197 493 289 
Q 534 381 534 647 
L 534 1741 
Q 534 2213 506 2350 
Q 484 2453 437 2492 
Q 391 2531 309 2531 
Q 222 2531 100 2484 
L 53 2597 
L 916 2947 
L 1050 2947 
L 1050 2338 
z
" transform="scale(0.015625)"/>
        <path id="TimesNewRomanPSMT-62" d="M 984 2369 
Q 1400 2947 1881 2947 
Q 2322 2947 2650 2570 
Q 2978 2194 2978 1541 
Q 2978 778 2472 313 
Q 2038 -88 1503 -88 
Q 1253 -88 995 3 
Q 738 94 469 275 
L 469 3241 
Q 469 3728 445 3840 
Q 422 3953 372 3993 
Q 322 4034 247 4034 
Q 159 4034 28 3984 
L -16 4094 
L 844 4444 
L 984 4444 
L 984 2369 
z
M 984 2169 
L 984 456 
Q 1144 300 1314 220 
Q 1484 141 1663 141 
Q 1947 141 2192 453 
Q 2438 766 2438 1363 
Q 2438 1913 2192 2208 
Q 1947 2503 1634 2503 
Q 1469 2503 1303 2419 
Q 1178 2356 984 2169 
z
" transform="scale(0.015625)"/>
       </defs>
       <use xlink:href="#TimesNewRomanPSMT-43"/>
       <use xlink:href="#TimesNewRomanPSMT-6f" transform="translate(66.699219 0)"/>
       <use xlink:href="#TimesNewRomanPSMT-6c" transform="translate(116.699219 0)"/>
       <use xlink:href="#TimesNewRomanPSMT-75" transform="translate(144.482422 0)"/>
       <use xlink:href="#TimesNewRomanPSMT-6d" transform="translate(194.482422 0)"/>
       <use xlink:href="#TimesNewRomanPSMT-62" transform="translate(272.265625 0)"/>
       <use xlink:href="#TimesNewRomanPSMT-61" transform="translate(322.265625 0)"/>
      </g>
      <!-- (n=700) -->
      <g transform="translate(299.923912 335.14125) scale(0.2 -0.2)">
       <defs>
        <path id="TimesNewRomanPSMT-37" d="M 644 4238 
L 2916 4238 
L 2916 4119 
L 1503 -88 
L 1153 -88 
L 2419 3728 
L 1253 3728 
Q 900 3728 750 3644 
Q 488 3500 328 3200 
L 238 3234 
L 644 4238 
z
" transform="scale(0.015625)"/>
       </defs>
       <use xlink:href="#TimesNewRomanPSMT-28"/>
       <use xlink:href="#TimesNewRomanPSMT-6e" transform="translate(33.300781 0)"/>
       <use xlink:href="#TimesNewRomanPSMT-3d" transform="translate(83.300781 0)"/>
       <use xlink:href="#TimesNewRomanPSMT-37" transform="translate(139.697266 0)"/>
       <use xlink:href="#TimesNewRomanPSMT-30" transform="translate(189.697266 0)"/>
       <use xlink:href="#TimesNewRomanPSMT-30" transform="translate(239.697266 0)"/>
       <use xlink:href="#TimesNewRomanPSMT-29" transform="translate(289.697266 0)"/>
      </g>
     </g>
    </g>
   </g>
   <g id="matplotlib.axis_2">
    <g id="ytick_1">
     <g id="line2d_4">
      <defs>
       <path id="m624b53d5f0" d="M 0 0 
L -3.5 0 
" style="stroke: #000000; stroke-width: 0.8"/>
      </defs>
      <g>
       <use xlink:href="#m624b53d5f0" x="43.477175" y="259.824258" style="stroke: #000000; stroke-width: 0.8"/>
      </g>
     </g>
     <g id="text_4">
      <!-- 10 -->
      <g transform="translate(26.477175 263.296133) scale(0.1 -0.1)">
       <use xlink:href="#TimesNewRomanPSMT-31"/>
       <use xlink:href="#TimesNewRomanPSMT-30" transform="translate(50 0)"/>
      </g>
     </g>
    </g>
    <g id="ytick_2">
     <g id="line2d_5">
      <g>
       <use xlink:href="#m624b53d5f0" x="43.477175" y="222.543669" style="stroke: #000000; stroke-width: 0.8"/>
      </g>
     </g>
     <g id="text_5">
      <!-- 15 -->
      <g transform="translate(26.477175 226.015544) scale(0.1 -0.1)">
       <use xlink:href="#TimesNewRomanPSMT-31"/>
       <use xlink:href="#TimesNewRomanPSMT-35" transform="translate(50 0)"/>
      </g>
     </g>
    </g>
    <g id="ytick_3">
     <g id="line2d_6">
      <g>
       <use xlink:href="#m624b53d5f0" x="43.477175" y="185.263079" style="stroke: #000000; stroke-width: 0.8"/>
      </g>
     </g>
     <g id="text_6">
      <!-- 20 -->
      <g transform="translate(26.477175 188.734954) scale(0.1 -0.1)">
       <defs>
        <path id="TimesNewRomanPSMT-32" d="M 2934 816 
L 2638 0 
L 138 0 
L 138 116 
Q 1241 1122 1691 1759 
Q 2141 2397 2141 2925 
Q 2141 3328 1894 3587 
Q 1647 3847 1303 3847 
Q 991 3847 742 3664 
Q 494 3481 375 3128 
L 259 3128 
Q 338 3706 661 4015 
Q 984 4325 1469 4325 
Q 1984 4325 2329 3994 
Q 2675 3663 2675 3213 
Q 2675 2891 2525 2569 
Q 2294 2063 1775 1497 
Q 997 647 803 472 
L 1909 472 
Q 2247 472 2383 497 
Q 2519 522 2628 598 
Q 2738 675 2819 816 
L 2934 816 
z
" transform="scale(0.015625)"/>
       </defs>
       <use xlink:href="#TimesNewRomanPSMT-32"/>
       <use xlink:href="#TimesNewRomanPSMT-30" transform="translate(50 0)"/>
      </g>
     </g>
    </g>
    <g id="ytick_4">
     <g id="line2d_7">
      <g>
       <use xlink:href="#m624b53d5f0" x="43.477175" y="147.98249" style="stroke: #000000; stroke-width: 0.8"/>
      </g>
     </g>
     <g id="text_7">
      <!-- 25 -->
      <g transform="translate(26.477175 151.454365) scale(0.1 -0.1)">
       <use xlink:href="#TimesNewRomanPSMT-32"/>
       <use xlink:href="#TimesNewRomanPSMT-35" transform="translate(50 0)"/>
      </g>
     </g>
    </g>
    <g id="ytick_5">
     <g id="line2d_8">
      <g>
       <use xlink:href="#m624b53d5f0" x="43.477175" y="110.7019" style="stroke: #000000; stroke-width: 0.8"/>
      </g>
     </g>
     <g id="text_8">
      <!-- 30 -->
      <g transform="translate(26.477175 114.173775) scale(0.1 -0.1)">
       <defs>
        <path id="TimesNewRomanPSMT-33" d="M 325 3431 
Q 506 3859 782 4092 
Q 1059 4325 1472 4325 
Q 1981 4325 2253 3994 
Q 2459 3747 2459 3466 
Q 2459 3003 1878 2509 
Q 2269 2356 2469 2072 
Q 2669 1788 2669 1403 
Q 2669 853 2319 450 
Q 1863 -75 997 -75 
Q 569 -75 414 31 
Q 259 138 259 259 
Q 259 350 332 419 
Q 406 488 509 488 
Q 588 488 669 463 
Q 722 447 909 348 
Q 1097 250 1169 231 
Q 1284 197 1416 197 
Q 1734 197 1970 444 
Q 2206 691 2206 1028 
Q 2206 1275 2097 1509 
Q 2016 1684 1919 1775 
Q 1784 1900 1550 2001 
Q 1316 2103 1072 2103 
L 972 2103 
L 972 2197 
Q 1219 2228 1467 2375 
Q 1716 2522 1828 2728 
Q 1941 2934 1941 3181 
Q 1941 3503 1739 3701 
Q 1538 3900 1238 3900 
Q 753 3900 428 3381 
L 325 3431 
z
" transform="scale(0.015625)"/>
       </defs>
       <use xlink:href="#TimesNewRomanPSMT-33"/>
       <use xlink:href="#TimesNewRomanPSMT-30" transform="translate(50 0)"/>
      </g>
     </g>
    </g>
    <g id="ytick_6">
     <g id="line2d_9">
      <g>
       <use xlink:href="#m624b53d5f0" x="43.477175" y="73.421311" style="stroke: #000000; stroke-width: 0.8"/>
      </g>
     </g>
     <g id="text_9">
      <!-- 35 -->
      <g transform="translate(26.477175 76.893186) scale(0.1 -0.1)">
       <use xlink:href="#TimesNewRomanPSMT-33"/>
       <use xlink:href="#TimesNewRomanPSMT-35" transform="translate(50 0)"/>
      </g>
     </g>
    </g>
    <g id="text_10">
     <!-- End-to-End Distance (Å) -->
     <g transform="translate(23.90625 268.5725) rotate(-90) scale(0.2 -0.2)">
      <defs>
       <path id="TimesNewRomanPSMT-45" d="M 1338 4006 
L 1338 2331 
L 2269 2331 
Q 2631 2331 2753 2441 
Q 2916 2584 2934 2947 
L 3050 2947 
L 3050 1472 
L 2934 1472 
Q 2891 1781 2847 1869 
Q 2791 1978 2662 2040 
Q 2534 2103 2269 2103 
L 1338 2103 
L 1338 706 
Q 1338 425 1363 364 
Q 1388 303 1450 267 
Q 1513 231 1688 231 
L 2406 231 
Q 2766 231 2928 281 
Q 3091 331 3241 478 
Q 3434 672 3638 1063 
L 3763 1063 
L 3397 0 
L 131 0 
L 131 116 
L 281 116 
Q 431 116 566 188 
Q 666 238 702 338 
Q 738 438 738 747 
L 738 3500 
Q 738 3903 656 3997 
Q 544 4122 281 4122 
L 131 4122 
L 131 4238 
L 3397 4238 
L 3444 3309 
L 3322 3309 
Q 3256 3644 3176 3769 
Q 3097 3894 2941 3959 
Q 2816 4006 2500 4006 
L 1338 4006 
z
" transform="scale(0.015625)"/>
       <path id="TimesNewRomanPSMT-64" d="M 2222 322 
Q 2013 103 1813 7 
Q 1613 -88 1381 -88 
Q 913 -88 563 304 
Q 213 697 213 1313 
Q 213 1928 600 2439 
Q 988 2950 1597 2950 
Q 1975 2950 2222 2709 
L 2222 3238 
Q 2222 3728 2198 3840 
Q 2175 3953 2125 3993 
Q 2075 4034 2000 4034 
Q 1919 4034 1784 3984 
L 1744 4094 
L 2597 4444 
L 2738 4444 
L 2738 1134 
Q 2738 631 2761 520 
Q 2784 409 2836 365 
Q 2888 322 2956 322 
Q 3041 322 3181 375 
L 3216 266 
L 2366 -88 
L 2222 -88 
L 2222 322 
z
M 2222 541 
L 2222 2016 
Q 2203 2228 2109 2403 
Q 2016 2578 1861 2667 
Q 1706 2756 1559 2756 
Q 1284 2756 1069 2509 
Q 784 2184 784 1559 
Q 784 928 1059 592 
Q 1334 256 1672 256 
Q 1956 256 2222 541 
z
" transform="scale(0.015625)"/>
       <path id="TimesNewRomanPSMT-2d" d="M 259 1672 
L 1875 1672 
L 1875 1200 
L 259 1200 
L 259 1672 
z
" transform="scale(0.015625)"/>
       <path id="TimesNewRomanPSMT-74" d="M 1031 3803 
L 1031 2863 
L 1700 2863 
L 1700 2644 
L 1031 2644 
L 1031 788 
Q 1031 509 1111 412 
Q 1191 316 1316 316 
Q 1419 316 1516 380 
Q 1613 444 1666 569 
L 1788 569 
Q 1678 263 1478 108 
Q 1278 -47 1066 -47 
Q 922 -47 784 33 
Q 647 113 581 261 
Q 516 409 516 719 
L 516 2644 
L 63 2644 
L 63 2747 
Q 234 2816 414 2980 
Q 594 3144 734 3369 
Q 806 3488 934 3803 
L 1031 3803 
z
" transform="scale(0.015625)"/>
       <path id="TimesNewRomanPSMT-20" transform="scale(0.015625)"/>
       <path id="TimesNewRomanPSMT-44" d="M 109 0 
L 109 116 
L 269 116 
Q 538 116 650 288 
Q 719 391 719 750 
L 719 3488 
Q 719 3884 631 3984 
Q 509 4122 269 4122 
L 109 4122 
L 109 4238 
L 1834 4238 
Q 2784 4238 3279 4022 
Q 3775 3806 4076 3303 
Q 4378 2800 4378 2141 
Q 4378 1256 3841 663 
Q 3238 0 2003 0 
L 109 0 
z
M 1319 306 
Q 1716 219 1984 219 
Q 2709 219 3187 728 
Q 3666 1238 3666 2109 
Q 3666 2988 3187 3494 
Q 2709 4000 1959 4000 
Q 1678 4000 1319 3909 
L 1319 306 
z
" transform="scale(0.015625)"/>
       <path id="TimesNewRomanPSMT-69" d="M 928 4444 
Q 1059 4444 1151 4351 
Q 1244 4259 1244 4128 
Q 1244 3997 1151 3903 
Q 1059 3809 928 3809 
Q 797 3809 703 3903 
Q 609 3997 609 4128 
Q 609 4259 701 4351 
Q 794 4444 928 4444 
z
M 1188 2947 
L 1188 647 
Q 1188 378 1227 289 
Q 1266 200 1342 156 
Q 1419 113 1622 113 
L 1622 0 
L 231 0 
L 231 113 
Q 441 113 512 153 
Q 584 194 626 287 
Q 669 381 669 647 
L 669 1750 
Q 669 2216 641 2353 
Q 619 2453 572 2492 
Q 525 2531 444 2531 
Q 356 2531 231 2484 
L 188 2597 
L 1050 2947 
L 1188 2947 
z
" transform="scale(0.015625)"/>
       <path id="TimesNewRomanPSMT-63" d="M 2631 1088 
Q 2516 522 2178 217 
Q 1841 -88 1431 -88 
Q 944 -88 581 321 
Q 219 731 219 1428 
Q 219 2103 620 2525 
Q 1022 2947 1584 2947 
Q 2006 2947 2278 2723 
Q 2550 2500 2550 2259 
Q 2550 2141 2473 2067 
Q 2397 1994 2259 1994 
Q 2075 1994 1981 2113 
Q 1928 2178 1911 2362 
Q 1894 2547 1784 2644 
Q 1675 2738 1481 2738 
Q 1169 2738 978 2506 
Q 725 2200 725 1697 
Q 725 1184 976 792 
Q 1228 400 1656 400 
Q 1963 400 2206 609 
Q 2378 753 2541 1131 
L 2631 1088 
z
" transform="scale(0.015625)"/>
       <path id="TimesNewRomanPSMT-65" d="M 681 1784 
Q 678 1147 991 784 
Q 1303 422 1725 422 
Q 2006 422 2214 576 
Q 2422 731 2563 1106 
L 2659 1044 
Q 2594 616 2278 264 
Q 1963 -88 1488 -88 
Q 972 -88 605 314 
Q 238 716 238 1394 
Q 238 2128 614 2539 
Q 991 2950 1559 2950 
Q 2041 2950 2350 2633 
Q 2659 2316 2659 1784 
L 681 1784 
z
M 681 1966 
L 2006 1966 
Q 1991 2241 1941 2353 
Q 1863 2528 1708 2628 
Q 1553 2728 1384 2728 
Q 1125 2728 920 2526 
Q 716 2325 681 1966 
z
" transform="scale(0.015625)"/>
       <path id="TimesNewRomanPSMT-c5" d="M 2928 1419 
L 1288 1419 
L 1000 750 
Q 894 503 894 381 
Q 894 284 986 211 
Q 1078 138 1384 116 
L 1384 0 
L 50 0 
L 50 116 
Q 316 163 394 238 
Q 553 388 747 847 
L 2238 4334 
L 2347 4334 
L 3822 809 
Q 4000 384 4145 257 
Q 4291 131 4550 116 
L 4550 0 
L 2878 0 
L 2878 116 
Q 3131 128 3220 200 
Q 3309 272 3309 375 
Q 3309 513 3184 809 
L 2928 1419 
z
M 2841 1650 
L 2122 3363 
L 1384 1650 
L 2841 1650 
z
M 2282 5346 
Q 2532 5346 2707 5171 
Q 2882 4996 2882 4749 
Q 2882 4499 2707 4324 
Q 2532 4149 2282 4149 
Q 2035 4149 1860 4324 
Q 1685 4499 1685 4749 
Q 1685 4996 1858 5171 
Q 2032 5346 2282 5346 
z
M 2282 5130 
Q 2122 5130 2011 5019 
Q 1900 4909 1900 4749 
Q 1900 4593 2011 4480 
Q 2122 4368 2282 4368 
Q 2441 4368 2552 4480 
Q 2663 4593 2663 4749 
Q 2663 4909 2552 5019 
Q 2441 5130 2282 5130 
z
" transform="scale(0.015625)"/>
      </defs>
      <use xlink:href="#TimesNewRomanPSMT-45"/>
      <use xlink:href="#TimesNewRomanPSMT-6e" transform="translate(61.083984 0)"/>
      <use xlink:href="#TimesNewRomanPSMT-64" transform="translate(111.083984 0)"/>
      <use xlink:href="#TimesNewRomanPSMT-2d" transform="translate(161.083984 0)"/>
      <use xlink:href="#TimesNewRomanPSMT-74" transform="translate(194.384766 0)"/>
      <use xlink:href="#TimesNewRomanPSMT-6f" transform="translate(222.167969 0)"/>
      <use xlink:href="#TimesNewRomanPSMT-2d" transform="translate(272.167969 0)"/>
      <use xlink:href="#TimesNewRomanPSMT-45" transform="translate(305.46875 0)"/>
      <use xlink:href="#TimesNewRomanPSMT-6e" transform="translate(366.552734 0)"/>
      <use xlink:href="#TimesNewRomanPSMT-64" transform="translate(416.552734 0)"/>
      <use xlink:href="#TimesNewRomanPSMT-20" transform="translate(466.552734 0)"/>
      <use xlink:href="#TimesNewRomanPSMT-44" transform="translate(491.552734 0)"/>
      <use xlink:href="#TimesNewRomanPSMT-69" transform="translate(563.769531 0)"/>
      <use xlink:href="#TimesNewRomanPSMT-73" transform="translate(591.552734 0)"/>
      <use xlink:href="#TimesNewRomanPSMT-74" transform="translate(630.46875 0)"/>
      <use xlink:href="#TimesNewRomanPSMT-61" transform="translate(658.251953 0)"/>
      <use xlink:href="#TimesNewRomanPSMT-6e" transform="translate(702.636719 0)"/>
      <use xlink:href="#TimesNewRomanPSMT-63" transform="translate(752.636719 0)"/>
      <use xlink:href="#TimesNewRomanPSMT-65" transform="translate(797.021484 0)"/>
      <use xlink:href="#TimesNewRomanPSMT-20" transform="translate(841.40625 0)"/>
      <use xlink:href="#TimesNewRomanPSMT-28" transform="translate(866.40625 0)"/>
      <use xlink:href="#TimesNewRomanPSMT-c5" transform="translate(899.707031 0)"/>
      <use xlink:href="#TimesNewRomanPSMT-29" transform="translate(971.923828 0)"/>
     </g>
    </g>
   </g>
   <g id="LineCollection_1">
    <path d="M 76.748224 181.64694 
L 112.395776 181.64694 
" clip-path="url(#paa6fd71a7c)" style="fill: none; stroke: #000000; stroke-width: 1.5"/>
    <path d="M 195.573399 207.670618 
L 231.220951 207.670618 
" clip-path="url(#paa6fd71a7c)" style="fill: none; stroke: #000000; stroke-width: 1.5"/>
    <path d="M 314.398574 169.24798 
L 350.046126 169.24798 
" clip-path="url(#paa6fd71a7c)" style="fill: none; stroke: #000000; stroke-width: 1.5"/>
   </g>
   <g id="patch_3">
    <path d="M 43.477175 290.810625 
L 43.477175 45.290625 
" style="fill: none; stroke: #000000; stroke-width: 0.8; stroke-linejoin: miter; stroke-linecap: square"/>
   </g>
   <g id="patch_4">
    <path d="M 43.477175 290.810625 
L 383.317175 290.810625 
" style="fill: none; stroke: #000000; stroke-width: 0.8; stroke-linejoin: miter; stroke-linecap: square"/>
   </g>
   <g id="PathCollection_1">
    <defs>
     <path id="m3d9d4e4798" d="M 0 1.414214 
C 0.375054 1.414214 0.734797 1.265203 1 1 
C 1.265203 0.734797 1.414214 0.375054 1.414214 0 
C 1.414214 -0.375054 1.265203 -0.734797 1 -1 
C 0.734797 -1.265203 0.375054 -1.414214 0 -1.414214 
C -0.375054 -1.414214 -0.734797 -1.265203 -1 -1 
C -1.265203 -0.734797 -1.414214 -0.375054 -1.414214 0 
C -1.414214 0.375054 -1.265203 0.734797 -1 1 
C -0.734797 1.265203 -0.375054 1.414214 0 1.414214 
z
"/>
    </defs>
    <g clip-path="url(#paa6fd71a7c)">
     <use xlink:href="#m3d9d4e4798" x="87.722964" y="246.965099" style="fill: #c46b83"/>
     <use xlink:href="#m3d9d4e4798" x="88.866647" y="181.645915" style="fill: #c46b83"/>
     <use xlink:href="#m3d9d4e4798" x="85.205958" y="257.163398" style="fill: #c46b83"/>
     <use xlink:href="#m3d9d4e4798" x="100.027014" y="181.645107" style="fill: #c46b83"/>
     <use xlink:href="#m3d9d4e4798" x="97.706149" y="187.102794" style="fill: #c46b83"/>
     <use xlink:href="#m3d9d4e4798" x="98.47261" y="181.644779" style="fill: #c46b83"/>
     <use xlink:href="#m3d9d4e4798" x="99.909228" y="181.645113" style="fill: #c46b83"/>
     <use xlink:href="#m3d9d4e4798" x="93.790906" y="257.164768" style="fill: #c46b83"/>
     <use xlink:href="#m3d9d4e4798" x="95.87891" y="181.644955" style="fill: #c46b83"/>
     <use xlink:href="#m3d9d4e4798" x="87.723811" y="181.646809" style="fill: #c46b83"/>
     <use xlink:href="#m3d9d4e4798" x="87.243435" y="181.6451" style="fill: #c46b83"/>
     <use xlink:href="#m3d9d4e4798" x="97.773682" y="187.101913" style="fill: #c46b83"/>
     <use xlink:href="#m3d9d4e4798" x="94.02248" y="257.164922" style="fill: #c46b83"/>
     <use xlink:href="#m3d9d4e4798" x="95.812271" y="181.645764" style="fill: #c46b83"/>
     <use xlink:href="#m3d9d4e4798" x="99.610166" y="246.965295" style="fill: #c46b83"/>
     <use xlink:href="#m3d9d4e4798" x="97.133269" y="181.64694" style="fill: #c46b83"/>
     <use xlink:href="#m3d9d4e4798" x="95.590653" y="181.645915" style="fill: #c46b83"/>
     <use xlink:href="#m3d9d4e4798" x="95.697648" y="187.102794" style="fill: #c46b83"/>
     <use xlink:href="#m3d9d4e4798" x="90.844694" y="181.6451" style="fill: #c46b83"/>
     <use xlink:href="#m3d9d4e4798" x="85.651896" y="187.103612" style="fill: #c46b83"/>
     <use xlink:href="#m3d9d4e4798" x="93.368869" y="181.644955" style="fill: #c46b83"/>
     <use xlink:href="#m3d9d4e4798" x="89.145676" y="187.102794" style="fill: #c46b83"/>
     <use xlink:href="#m3d9d4e4798" x="92.832944" y="181.645915" style="fill: #c46b83"/>
     <use xlink:href="#m3d9d4e4798" x="101.290909" y="181.64694" style="fill: #c46b83"/>
     <use xlink:href="#m3d9d4e4798" x="89.51365" y="181.644955" style="fill: #c46b83"/>
     <use xlink:href="#m3d9d4e4798" x="86.17444" y="257.164624" style="fill: #c46b83"/>
     <use xlink:href="#m3d9d4e4798" x="90.415665" y="187.102794" style="fill: #c46b83"/>
     <use xlink:href="#m3d9d4e4798" x="90.647799" y="257.16464" style="fill: #c46b83"/>
     <use xlink:href="#m3d9d4e4798" x="97.650361" y="181.647506" style="fill: #c46b83"/>
     <use xlink:href="#m3d9d4e4798" x="95.656297" y="230.213027" style="fill: #c46b83"/>
     <use xlink:href="#m3d9d4e4798" x="99.969481" y="257.165175" style="fill: #c46b83"/>
     <use xlink:href="#m3d9d4e4798" x="97.695934" y="181.644885" style="fill: #c46b83"/>
     <use xlink:href="#m3d9d4e4798" x="92.792225" y="187.103612" style="fill: #c46b83"/>
     <use xlink:href="#m3d9d4e4798" x="100.542165" y="257.164768" style="fill: #c46b83"/>
     <use xlink:href="#m3d9d4e4798" x="88.24048" y="187.102794" style="fill: #c46b83"/>
     <use xlink:href="#m3d9d4e4798" x="85.497789" y="181.645764" style="fill: #c46b83"/>
     <use xlink:href="#m3d9d4e4798" x="86.777979" y="181.645915" style="fill: #c46b83"/>
     <use xlink:href="#m3d9d4e4798" x="98.799502" y="246.965607" style="fill: #c46b83"/>
     <use xlink:href="#m3d9d4e4798" x="93.847209" y="257.163398" style="fill: #c46b83"/>
     <use xlink:href="#m3d9d4e4798" x="88.13209" y="181.645243" style="fill: #c46b83"/>
     <use xlink:href="#m3d9d4e4798" x="94.591863" y="187.102478" style="fill: #c46b83"/>
     <use xlink:href="#m3d9d4e4798" x="87.961748" y="181.6451" style="fill: #c46b83"/>
     <use xlink:href="#m3d9d4e4798" x="98.304449" y="181.64694" style="fill: #c46b83"/>
     <use xlink:href="#m3d9d4e4798" x="93.548322" y="181.6451" style="fill: #c46b83"/>
     <use xlink:href="#m3d9d4e4798" x="92.309972" y="187.102794" style="fill: #c46b83"/>
     <use xlink:href="#m3d9d4e4798" x="90.798342" y="181.646641" style="fill: #c46b83"/>
     <use xlink:href="#m3d9d4e4798" x="97.048936" y="181.645915" style="fill: #c46b83"/>
     <use xlink:href="#m3d9d4e4798" x="91.944778" y="187.101489" style="fill: #c46b83"/>
     <use xlink:href="#m3d9d4e4798" x="86.732389" y="181.645243" style="fill: #c46b83"/>
     <use xlink:href="#m3d9d4e4798" x="87.309518" y="181.645107" style="fill: #c46b83"/>
    </g>
   </g>
   <g id="PathCollection_2">
    <defs>
     <path id="m92fdbb6f55" d="M 0 1.414214 
C 0.375054 1.414214 0.734797 1.265203 1 1 
C 1.265203 0.734797 1.414214 0.375054 1.414214 0 
C 1.414214 -0.375054 1.265203 -0.734797 1 -1 
C 0.734797 -1.265203 0.375054 -1.414214 0 -1.414214 
C -0.375054 -1.414214 -0.734797 -1.265203 -1 -1 
C -1.265203 -0.734797 -1.414214 -0.375054 -1.414214 0 
C -1.414214 0.375054 -1.265203 0.734797 -1 1 
C -0.734797 1.265203 -0.375054 1.414214 0 1.414214 
z
"/>
    </defs>
    <g clip-path="url(#paa6fd71a7c)">
     <use xlink:href="#m92fdbb6f55" x="209.791043" y="208.15682" style="fill: #93aacd"/>
     <use xlink:href="#m92fdbb6f55" x="218.671204" y="183.82835" style="fill: #93aacd"/>
     <use xlink:href="#m92fdbb6f55" x="222.367552" y="214.627021" style="fill: #93aacd"/>
     <use xlink:href="#m92fdbb6f55" x="213.411266" y="201.921669" style="fill: #93aacd"/>
     <use xlink:href="#m92fdbb6f55" x="206.626944" y="201.921669" style="fill: #93aacd"/>
     <use xlink:href="#m92fdbb6f55" x="204.156118" y="207.669743" style="fill: #93aacd"/>
     <use xlink:href="#m92fdbb6f55" x="208.257388" y="205.085008" style="fill: #93aacd"/>
     <use xlink:href="#m92fdbb6f55" x="206.397369" y="183.479855" style="fill: #93aacd"/>
     <use xlink:href="#m92fdbb6f55" x="216.774827" y="207.669622" style="fill: #93aacd"/>
     <use xlink:href="#m92fdbb6f55" x="206.207444" y="214.713296" style="fill: #93aacd"/>
     <use xlink:href="#m92fdbb6f55" x="213.51752" y="207.670563" style="fill: #93aacd"/>
     <use xlink:href="#m92fdbb6f55" x="217.090498" y="214.627021" style="fill: #93aacd"/>
     <use xlink:href="#m92fdbb6f55" x="214.939366" y="207.740036" style="fill: #93aacd"/>
     <use xlink:href="#m92fdbb6f55" x="207.689301" y="214.715181" style="fill: #93aacd"/>
     <use xlink:href="#m92fdbb6f55" x="219.179199" y="207.739878" style="fill: #93aacd"/>
     <use xlink:href="#m92fdbb6f55" x="217.492501" y="207.74044" style="fill: #93aacd"/>
     <use xlink:href="#m92fdbb6f55" x="217.940746" y="207.669722" style="fill: #93aacd"/>
     <use xlink:href="#m92fdbb6f55" x="206.382835" y="226.147155" style="fill: #93aacd"/>
     <use xlink:href="#m92fdbb6f55" x="206.243972" y="181.175026" style="fill: #93aacd"/>
     <use xlink:href="#m92fdbb6f55" x="221.526006" y="183.829026" style="fill: #93aacd"/>
     <use xlink:href="#m92fdbb6f55" x="211.449929" y="183.829026" style="fill: #93aacd"/>
     <use xlink:href="#m92fdbb6f55" x="209.612806" y="219.636147" style="fill: #93aacd"/>
     <use xlink:href="#m92fdbb6f55" x="213.180135" y="207.669622" style="fill: #93aacd"/>
     <use xlink:href="#m92fdbb6f55" x="216.493554" y="207.739748" style="fill: #93aacd"/>
     <use xlink:href="#m92fdbb6f55" x="222.059497" y="207.740025" style="fill: #93aacd"/>
     <use xlink:href="#m92fdbb6f55" x="209.337085" y="205.085338" style="fill: #93aacd"/>
     <use xlink:href="#m92fdbb6f55" x="221.473645" y="181.175026" style="fill: #93aacd"/>
     <use xlink:href="#m92fdbb6f55" x="204.36379" y="227.097083" style="fill: #93aacd"/>
     <use xlink:href="#m92fdbb6f55" x="214.446602" y="181.175568" style="fill: #93aacd"/>
     <use xlink:href="#m92fdbb6f55" x="215.944314" y="207.669743" style="fill: #93aacd"/>
     <use xlink:href="#m92fdbb6f55" x="205.904485" y="183.829261" style="fill: #93aacd"/>
     <use xlink:href="#m92fdbb6f55" x="206.559301" y="183.82835" style="fill: #93aacd"/>
     <use xlink:href="#m92fdbb6f55" x="211.859374" y="207.740256" style="fill: #93aacd"/>
     <use xlink:href="#m92fdbb6f55" x="222.261189" y="214.71358" style="fill: #93aacd"/>
     <use xlink:href="#m92fdbb6f55" x="215.223139" y="183.829852" style="fill: #93aacd"/>
     <use xlink:href="#m92fdbb6f55" x="221.629825" y="207.669743" style="fill: #93aacd"/>
     <use xlink:href="#m92fdbb6f55" x="219.183693" y="207.740036" style="fill: #93aacd"/>
     <use xlink:href="#m92fdbb6f55" x="212.777033" y="191.650764" style="fill: #93aacd"/>
     <use xlink:href="#m92fdbb6f55" x="218.811106" y="226.149631" style="fill: #93aacd"/>
     <use xlink:href="#m92fdbb6f55" x="204.230274" y="183.479813" style="fill: #93aacd"/>
     <use xlink:href="#m92fdbb6f55" x="205.96621" y="207.671181" style="fill: #93aacd"/>
     <use xlink:href="#m92fdbb6f55" x="219.660281" y="181.17613" style="fill: #93aacd"/>
     <use xlink:href="#m92fdbb6f55" x="219.04027" y="207.739442" style="fill: #93aacd"/>
     <use xlink:href="#m92fdbb6f55" x="208.314133" y="183.82835" style="fill: #93aacd"/>
     <use xlink:href="#m92fdbb6f55" x="213.982167" y="205.085338" style="fill: #93aacd"/>
     <use xlink:href="#m92fdbb6f55" x="215.412751" y="207.669249" style="fill: #93aacd"/>
     <use xlink:href="#m92fdbb6f55" x="220.388638" y="207.670709" style="fill: #93aacd"/>
     <use xlink:href="#m92fdbb6f55" x="215.357451" y="214.628075" style="fill: #93aacd"/>
     <use xlink:href="#m92fdbb6f55" x="211.734983" y="207.669622" style="fill: #93aacd"/>
     <use xlink:href="#m92fdbb6f55" x="211.005159" y="207.670723" style="fill: #93aacd"/>
     <use xlink:href="#m92fdbb6f55" x="211.988043" y="207.740256" style="fill: #93aacd"/>
     <use xlink:href="#m92fdbb6f55" x="216.285692" y="219.634706" style="fill: #93aacd"/>
     <use xlink:href="#m92fdbb6f55" x="220.383917" y="207.669722" style="fill: #93aacd"/>
     <use xlink:href="#m92fdbb6f55" x="212.520661" y="207.73836" style="fill: #93aacd"/>
     <use xlink:href="#m92fdbb6f55" x="208.603094" y="214.715813" style="fill: #93aacd"/>
     <use xlink:href="#m92fdbb6f55" x="208.390592" y="201.922507" style="fill: #93aacd"/>
     <use xlink:href="#m92fdbb6f55" x="218.074405" y="201.922507" style="fill: #93aacd"/>
     <use xlink:href="#m92fdbb6f55" x="219.415789" y="183.829573" style="fill: #93aacd"/>
     <use xlink:href="#m92fdbb6f55" x="205.892711" y="214.71535" style="fill: #93aacd"/>
     <use xlink:href="#m92fdbb6f55" x="205.15658" y="214.71535" style="fill: #93aacd"/>
     <use xlink:href="#m92fdbb6f55" x="215.19255" y="183.479823" style="fill: #93aacd"/>
     <use xlink:href="#m92fdbb6f55" x="206.670211" y="183.479347" style="fill: #93aacd"/>
     <use xlink:href="#m92fdbb6f55" x="219.5697" y="207.73836" style="fill: #93aacd"/>
     <use xlink:href="#m92fdbb6f55" x="209.791253" y="201.922462" style="fill: #93aacd"/>
     <use xlink:href="#m92fdbb6f55" x="206.626458" y="207.670792" style="fill: #93aacd"/>
     <use xlink:href="#m92fdbb6f55" x="221.400677" y="207.669622" style="fill: #93aacd"/>
     <use xlink:href="#m92fdbb6f55" x="207.038255" y="214.713296" style="fill: #93aacd"/>
     <use xlink:href="#m92fdbb6f55" x="209.304267" y="214.71358" style="fill: #93aacd"/>
     <use xlink:href="#m92fdbb6f55" x="206.811663" y="259.968362" style="fill: #93aacd"/>
     <use xlink:href="#m92fdbb6f55" x="206.086861" y="201.921669" style="fill: #93aacd"/>
     <use xlink:href="#m92fdbb6f55" x="204.293228" y="207.670792" style="fill: #93aacd"/>
     <use xlink:href="#m92fdbb6f55" x="204.94434" y="183.828263" style="fill: #93aacd"/>
     <use xlink:href="#m92fdbb6f55" x="207.21145" y="207.740025" style="fill: #93aacd"/>
     <use xlink:href="#m92fdbb6f55" x="204.90606" y="201.922913" style="fill: #93aacd"/>
     <use xlink:href="#m92fdbb6f55" x="215.130004" y="207.740036" style="fill: #93aacd"/>
     <use xlink:href="#m92fdbb6f55" x="216.832925" y="208.15682" style="fill: #93aacd"/>
     <use xlink:href="#m92fdbb6f55" x="211.374874" y="201.921888" style="fill: #93aacd"/>
     <use xlink:href="#m92fdbb6f55" x="209.936817" y="207.739336" style="fill: #93aacd"/>
     <use xlink:href="#m92fdbb6f55" x="213.483228" y="207.669891" style="fill: #93aacd"/>
     <use xlink:href="#m92fdbb6f55" x="220.526779" y="216.571672" style="fill: #93aacd"/>
     <use xlink:href="#m92fdbb6f55" x="220.072899" y="207.669811" style="fill: #93aacd"/>
     <use xlink:href="#m92fdbb6f55" x="204.71771" y="207.778528" style="fill: #93aacd"/>
     <use xlink:href="#m92fdbb6f55" x="207.341814" y="205.085008" style="fill: #93aacd"/>
     <use xlink:href="#m92fdbb6f55" x="208.392161" y="201.923355" style="fill: #93aacd"/>
     <use xlink:href="#m92fdbb6f55" x="208.632525" y="183.828665" style="fill: #93aacd"/>
     <use xlink:href="#m92fdbb6f55" x="214.751452" y="227.097083" style="fill: #93aacd"/>
     <use xlink:href="#m92fdbb6f55" x="211.805154" y="207.669811" style="fill: #93aacd"/>
     <use xlink:href="#m92fdbb6f55" x="204.827582" y="207.739177" style="fill: #93aacd"/>
     <use xlink:href="#m92fdbb6f55" x="210.994323" y="207.740097" style="fill: #93aacd"/>
     <use xlink:href="#m92fdbb6f55" x="213.848767" y="207.669622" style="fill: #93aacd"/>
     <use xlink:href="#m92fdbb6f55" x="205.82415" y="207.739878" style="fill: #93aacd"/>
     <use xlink:href="#m92fdbb6f55" x="219.736898" y="181.175568" style="fill: #93aacd"/>
     <use xlink:href="#m92fdbb6f55" x="204.879061" y="214.627021" style="fill: #93aacd"/>
     <use xlink:href="#m92fdbb6f55" x="221.47428" y="183.829937" style="fill: #93aacd"/>
     <use xlink:href="#m92fdbb6f55" x="205.775503" y="207.670618" style="fill: #93aacd"/>
     <use xlink:href="#m92fdbb6f55" x="219.929232" y="201.921888" style="fill: #93aacd"/>
     <use xlink:href="#m92fdbb6f55" x="221.052428" y="207.671038" style="fill: #93aacd"/>
     <use xlink:href="#m92fdbb6f55" x="222.514786" y="214.713296" style="fill: #93aacd"/>
     <use xlink:href="#m92fdbb6f55" x="219.139299" y="181.175294" style="fill: #93aacd"/>
     <use xlink:href="#m92fdbb6f55" x="218.71061" y="214.715181" style="fill: #93aacd"/>
    </g>
   </g>
   <g id="PathCollection_3">
    <defs>
     <path id="mf3a0e032b3" d="M 0 1.414214 
C 0.375054 1.414214 0.734797 1.265203 1 1 
C 1.265203 0.734797 1.414214 0.375054 1.414214 0 
C 1.414214 -0.375054 1.265203 -0.734797 1 -1 
C 0.734797 -1.265203 0.375054 -1.414214 0 -1.414214 
C -0.375054 -1.414214 -0.734797 -1.265203 -1 -1 
C -1.265203 -0.734797 -1.414214 -0.375054 -1.414214 0 
C -1.414214 0.375054 -1.265203 0.734797 -1 1 
C -0.734797 1.265203 -0.375054 1.414214 0 1.414214 
z
"/>
    </defs>
    <g clip-path="url(#paa6fd71a7c)">
     <use xlink:href="#mf3a0e032b3" x="331.434265" y="194.277837" style="fill: #f3ce9d"/>
     <use xlink:href="#mf3a0e032b3" x="331.125624" y="157.212873" style="fill: #f3ce9d"/>
     <use xlink:href="#mf3a0e032b3" x="328.456588" y="194.276674" style="fill: #f3ce9d"/>
     <use xlink:href="#mf3a0e032b3" x="340.177779" y="159.933338" style="fill: #f3ce9d"/>
     <use xlink:href="#mf3a0e032b3" x="337.57032" y="184.386502" style="fill: #f3ce9d"/>
     <use xlink:href="#mf3a0e032b3" x="324.818846" y="157.212463" style="fill: #f3ce9d"/>
     <use xlink:href="#mf3a0e032b3" x="341.671987" y="169.249531" style="fill: #f3ce9d"/>
     <use xlink:href="#mf3a0e032b3" x="339.431711" y="157.212142" style="fill: #f3ce9d"/>
     <use xlink:href="#mf3a0e032b3" x="328.114011" y="280.989825" style="fill: #f3ce9d"/>
     <use xlink:href="#mf3a0e032b3" x="338.627437" y="156.09777" style="fill: #f3ce9d"/>
     <use xlink:href="#mf3a0e032b3" x="324.739587" y="163.30929" style="fill: #f3ce9d"/>
     <use xlink:href="#mf3a0e032b3" x="341.711343" y="100.795328" style="fill: #f3ce9d"/>
     <use xlink:href="#mf3a0e032b3" x="335.372353" y="131.384225" style="fill: #f3ce9d"/>
     <use xlink:href="#mf3a0e032b3" x="335.076531" y="178.293619" style="fill: #f3ce9d"/>
     <use xlink:href="#mf3a0e032b3" x="324.435797" y="170.675648" style="fill: #f3ce9d"/>
     <use xlink:href="#mf3a0e032b3" x="339.77076" y="201.922307" style="fill: #f3ce9d"/>
     <use xlink:href="#mf3a0e032b3" x="323.267675" y="131.385952" style="fill: #f3ce9d"/>
     <use xlink:href="#mf3a0e032b3" x="327.294966" y="166.78682" style="fill: #f3ce9d"/>
     <use xlink:href="#mf3a0e032b3" x="325.435472" y="184.386524" style="fill: #f3ce9d"/>
     <use xlink:href="#mf3a0e032b3" x="337.48427" y="170.676991" style="fill: #f3ce9d"/>
     <use xlink:href="#mf3a0e032b3" x="326.4846" y="169.248702" style="fill: #f3ce9d"/>
     <use xlink:href="#mf3a0e032b3" x="340.029415" y="182.417681" style="fill: #f3ce9d"/>
     <use xlink:href="#mf3a0e032b3" x="335.193341" y="205.086238" style="fill: #f3ce9d"/>
     <use xlink:href="#mf3a0e032b3" x="323.403862" y="219.63403" style="fill: #f3ce9d"/>
     <use xlink:href="#mf3a0e032b3" x="322.819568" y="182.228081" style="fill: #f3ce9d"/>
     <use xlink:href="#mf3a0e032b3" x="323.698458" y="201.431851" style="fill: #f3ce9d"/>
     <use xlink:href="#mf3a0e032b3" x="334.236202" y="184.386524" style="fill: #f3ce9d"/>
     <use xlink:href="#mf3a0e032b3" x="337.95413" y="169.247863" style="fill: #f3ce9d"/>
     <use xlink:href="#mf3a0e032b3" x="327.251709" y="170.31511" style="fill: #f3ce9d"/>
     <use xlink:href="#mf3a0e032b3" x="338.865321" y="191.201318" style="fill: #f3ce9d"/>
     <use xlink:href="#mf3a0e032b3" x="323.804431" y="170.675648" style="fill: #f3ce9d"/>
     <use xlink:href="#mf3a0e032b3" x="337.944283" y="226.149239" style="fill: #f3ce9d"/>
     <use xlink:href="#mf3a0e032b3" x="340.355609" y="142.790183" style="fill: #f3ce9d"/>
     <use xlink:href="#mf3a0e032b3" x="337.395682" y="180.617785" style="fill: #f3ce9d"/>
     <use xlink:href="#mf3a0e032b3" x="335.989028" y="111.96039" style="fill: #f3ce9d"/>
     <use xlink:href="#mf3a0e032b3" x="338.648039" y="194.27564" style="fill: #f3ce9d"/>
     <use xlink:href="#mf3a0e032b3" x="323.479693" y="152.744482" style="fill: #f3ce9d"/>
     <use xlink:href="#mf3a0e032b3" x="326.552623" y="174.458287" style="fill: #f3ce9d"/>
     <use xlink:href="#mf3a0e032b3" x="325.091388" y="194.277499" style="fill: #f3ce9d"/>
     <use xlink:href="#mf3a0e032b3" x="332.308493" y="201.921898" style="fill: #f3ce9d"/>
     <use xlink:href="#mf3a0e032b3" x="336.883873" y="109.912623" style="fill: #f3ce9d"/>
     <use xlink:href="#mf3a0e032b3" x="334.694139" y="188.991345" style="fill: #f3ce9d"/>
     <use xlink:href="#mf3a0e032b3" x="338.898064" y="216.571995" style="fill: #f3ce9d"/>
     <use xlink:href="#mf3a0e032b3" x="325.66725" y="157.212142" style="fill: #f3ce9d"/>
     <use xlink:href="#mf3a0e032b3" x="336.682973" y="166.787407" style="fill: #f3ce9d"/>
     <use xlink:href="#mf3a0e032b3" x="326.386446" y="143.557767" style="fill: #f3ce9d"/>
     <use xlink:href="#mf3a0e032b3" x="327.864009" y="127.594331" style="fill: #f3ce9d"/>
     <use xlink:href="#mf3a0e032b3" x="336.213064" y="156.098211" style="fill: #f3ce9d"/>
     <use xlink:href="#mf3a0e032b3" x="341.352017" y="184.387197" style="fill: #f3ce9d"/>
     <use xlink:href="#mf3a0e032b3" x="334.34302" y="142.790167" style="fill: #f3ce9d"/>
     <use xlink:href="#mf3a0e032b3" x="323.752497" y="166.787111" style="fill: #f3ce9d"/>
     <use xlink:href="#mf3a0e032b3" x="334.433619" y="213.129122" style="fill: #f3ce9d"/>
     <use xlink:href="#mf3a0e032b3" x="323.521506" y="183.478477" style="fill: #f3ce9d"/>
     <use xlink:href="#mf3a0e032b3" x="339.525739" y="205.085113" style="fill: #f3ce9d"/>
     <use xlink:href="#mf3a0e032b3" x="336.206858" y="109.91355" style="fill: #f3ce9d"/>
     <use xlink:href="#mf3a0e032b3" x="326.007847" y="153.104953" style="fill: #f3ce9d"/>
     <use xlink:href="#mf3a0e032b3" x="324.460138" y="184.386502" style="fill: #f3ce9d"/>
     <use xlink:href="#mf3a0e032b3" x="326.205675" y="127.593908" style="fill: #f3ce9d"/>
     <use xlink:href="#mf3a0e032b3" x="341.34864" y="163.308186" style="fill: #f3ce9d"/>
     <use xlink:href="#mf3a0e032b3" x="331.434504" y="194.276065" style="fill: #f3ce9d"/>
     <use xlink:href="#mf3a0e032b3" x="337.623305" y="166.786879" style="fill: #f3ce9d"/>
     <use xlink:href="#mf3a0e032b3" x="334.815749" y="157.213005" style="fill: #f3ce9d"/>
     <use xlink:href="#mf3a0e032b3" x="333.599071" y="156.099347" style="fill: #f3ce9d"/>
     <use xlink:href="#mf3a0e032b3" x="325.475556" y="243.44463" style="fill: #f3ce9d"/>
     <use xlink:href="#mf3a0e032b3" x="340.702179" y="184.017201" style="fill: #f3ce9d"/>
     <use xlink:href="#mf3a0e032b3" x="328.44547" y="170.678216" style="fill: #f3ce9d"/>
     <use xlink:href="#mf3a0e032b3" x="333.705615" y="169.247334" style="fill: #f3ce9d"/>
     <use xlink:href="#mf3a0e032b3" x="336.020496" y="191.121293" style="fill: #f3ce9d"/>
     <use xlink:href="#mf3a0e032b3" x="335.059575" y="189.997097" style="fill: #f3ce9d"/>
     <use xlink:href="#mf3a0e032b3" x="340.598943" y="157.212873" style="fill: #f3ce9d"/>
     <use xlink:href="#mf3a0e032b3" x="325.538462" y="219.635452" style="fill: #f3ce9d"/>
     <use xlink:href="#mf3a0e032b3" x="332.381152" y="169.248686" style="fill: #f3ce9d"/>
     <use xlink:href="#mf3a0e032b3" x="330.397849" y="170.677298" style="fill: #f3ce9d"/>
     <use xlink:href="#mf3a0e032b3" x="331.731245" y="180.618532" style="fill: #f3ce9d"/>
     <use xlink:href="#mf3a0e032b3" x="324.982903" y="201.432242" style="fill: #f3ce9d"/>
     <use xlink:href="#mf3a0e032b3" x="325.265746" y="142.789258" style="fill: #f3ce9d"/>
     <use xlink:href="#mf3a0e032b3" x="328.003116" y="180.617785" style="fill: #f3ce9d"/>
     <use xlink:href="#mf3a0e032b3" x="328.509388" y="180.61765" style="fill: #f3ce9d"/>
     <use xlink:href="#mf3a0e032b3" x="330.851644" y="170.677298" style="fill: #f3ce9d"/>
     <use xlink:href="#mf3a0e032b3" x="334.332448" y="155.023254" style="fill: #f3ce9d"/>
     <use xlink:href="#mf3a0e032b3" x="334.781922" y="178.108385" style="fill: #f3ce9d"/>
     <use xlink:href="#mf3a0e032b3" x="330.545696" y="165.121965" style="fill: #f3ce9d"/>
     <use xlink:href="#mf3a0e032b3" x="330.488132" y="150.954479" style="fill: #f3ce9d"/>
     <use xlink:href="#mf3a0e032b3" x="326.853895" y="213.128791" style="fill: #f3ce9d"/>
     <use xlink:href="#mf3a0e032b3" x="333.901231" y="174.933491" style="fill: #f3ce9d"/>
     <use xlink:href="#mf3a0e032b3" x="328.743927" y="169.24765" style="fill: #f3ce9d"/>
     <use xlink:href="#mf3a0e032b3" x="323.401906" y="184.01626" style="fill: #f3ce9d"/>
     <use xlink:href="#mf3a0e032b3" x="330.670969" y="152.745928" style="fill: #f3ce9d"/>
     <use xlink:href="#mf3a0e032b3" x="331.73056" y="169.248268" style="fill: #f3ce9d"/>
     <use xlink:href="#mf3a0e032b3" x="327.005314" y="180.618535" style="fill: #f3ce9d"/>
     <use xlink:href="#mf3a0e032b3" x="333.599922" y="227.096877" style="fill: #f3ce9d"/>
     <use xlink:href="#mf3a0e032b3" x="333.472807" y="169.247846" style="fill: #f3ce9d"/>
     <use xlink:href="#mf3a0e032b3" x="336.062821" y="152.745928" style="fill: #f3ce9d"/>
     <use xlink:href="#mf3a0e032b3" x="335.035151" y="114.023742" style="fill: #f3ce9d"/>
     <use xlink:href="#mf3a0e032b3" x="335.120411" y="113.777244" style="fill: #f3ce9d"/>
     <use xlink:href="#mf3a0e032b3" x="328.728208" y="178.109226" style="fill: #f3ce9d"/>
     <use xlink:href="#mf3a0e032b3" x="337.687019" y="130.502358" style="fill: #f3ce9d"/>
     <use xlink:href="#mf3a0e032b3" x="333.156684" y="194.276065" style="fill: #f3ce9d"/>
     <use xlink:href="#mf3a0e032b3" x="330.918471" y="213.127512" style="fill: #f3ce9d"/>
     <use xlink:href="#mf3a0e032b3" x="334.618103" y="152.744758" style="fill: #f3ce9d"/>
    </g>
   </g>
   <g id="text_11">
    <!-- b -->
    <g style="fill: #333333" transform="translate(89.011063 70.4749) scale(0.2 -0.2)">
     <defs>
      <path id="TimesNewRomanPS-BoldMT-62" d="M 1347 4238 
L 1347 2628 
Q 1716 3009 2153 3009 
Q 2453 3009 2718 2832 
Q 2984 2656 3134 2331 
Q 3284 2006 3284 1581 
Q 3284 1103 3093 712 
Q 2903 322 2584 117 
Q 2266 -88 1856 -88 
Q 1619 -88 1434 -12 
Q 1250 63 1072 231 
L 588 -84 
L 481 -84 
L 481 3631 
Q 481 3884 459 3944 
Q 428 4031 361 4073 
Q 294 4116 134 4122 
L 134 4238 
L 1347 4238 
z
M 1347 2350 
L 1347 1050 
Q 1347 653 1366 544 
Q 1397 359 1515 245 
Q 1634 131 1819 131 
Q 1978 131 2092 222 
Q 2206 313 2282 581 
Q 2359 850 2359 1550 
Q 2359 2222 2191 2472 
Q 2069 2653 1863 2653 
Q 1594 2653 1347 2350 
z
" transform="scale(0.015625)"/>
     </defs>
     <use xlink:href="#TimesNewRomanPS-BoldMT-62"/>
    </g>
   </g>
   <g id="text_12">
    <!-- b -->
    <g style="fill: #333333" transform="translate(207.836238 70.4749) scale(0.2 -0.2)">
     <use xlink:href="#TimesNewRomanPS-BoldMT-62"/>
    </g>
   </g>
   <g id="text_13">
    <!-- a -->
    <g style="fill: #333333" transform="translate(327.22235 70.4749) scale(0.2 -0.2)">
     <defs>
      <path id="TimesNewRomanPS-BoldMT-61" d="M 1828 431 
Q 1294 -41 869 -41 
Q 619 -41 453 123 
Q 288 288 288 534 
Q 288 869 575 1136 
Q 863 1403 1828 1847 
L 1828 2141 
Q 1828 2472 1792 2558 
Q 1756 2644 1656 2708 
Q 1556 2772 1431 2772 
Q 1228 2772 1097 2681 
Q 1016 2625 1016 2550 
Q 1016 2484 1103 2388 
Q 1222 2253 1222 2128 
Q 1222 1975 1108 1867 
Q 994 1759 809 1759 
Q 613 1759 480 1878 
Q 347 1997 347 2156 
Q 347 2381 525 2586 
Q 703 2791 1022 2900 
Q 1341 3009 1684 3009 
Q 2100 3009 2342 2832 
Q 2584 2656 2656 2450 
Q 2700 2319 2700 1847 
L 2700 713 
Q 2700 513 2715 461 
Q 2731 409 2762 384 
Q 2794 359 2834 359 
Q 2916 359 3000 475 
L 3094 400 
Q 2938 169 2770 64 
Q 2603 -41 2391 -41 
Q 2141 -41 2000 76 
Q 1859 194 1828 431 
z
M 1828 659 
L 1828 1638 
Q 1450 1416 1266 1163 
Q 1144 994 1144 822 
Q 1144 678 1247 569 
Q 1325 484 1466 484 
Q 1622 484 1828 659 
z
" transform="scale(0.015625)"/>
     </defs>
     <use xlink:href="#TimesNewRomanPS-BoldMT-61"/>
    </g>
   </g>
   <g id="text_14">
    <!-- Glycan End-to-End Distance -->
    <g transform="translate(97.878425 21.0875) scale(0.2 -0.2)">
     <defs>
      <path id="TimesNewRomanPSMT-79" d="M 38 2863 
L 1372 2863 
L 1372 2747 
L 1306 2747 
Q 1166 2747 1095 2686 
Q 1025 2625 1025 2534 
Q 1025 2413 1128 2197 
L 1825 753 
L 2466 2334 
Q 2519 2463 2519 2588 
Q 2519 2644 2497 2672 
Q 2472 2706 2419 2726 
Q 2366 2747 2231 2747 
L 2231 2863 
L 3163 2863 
L 3163 2747 
Q 3047 2734 2984 2696 
Q 2922 2659 2847 2556 
Q 2819 2513 2741 2316 
L 1575 -541 
Q 1406 -956 1132 -1168 
Q 859 -1381 606 -1381 
Q 422 -1381 303 -1275 
Q 184 -1169 184 -1031 
Q 184 -900 270 -820 
Q 356 -741 506 -741 
Q 609 -741 788 -809 
Q 913 -856 944 -856 
Q 1038 -856 1148 -759 
Q 1259 -663 1372 -384 
L 1575 113 
L 547 2272 
Q 500 2369 397 2513 
Q 319 2622 269 2659 
Q 197 2709 38 2747 
L 38 2863 
z
" transform="scale(0.015625)"/>
     </defs>
     <use xlink:href="#TimesNewRomanPSMT-47"/>
     <use xlink:href="#TimesNewRomanPSMT-6c" transform="translate(72.216797 0)"/>
     <use xlink:href="#TimesNewRomanPSMT-79" transform="translate(100 0)"/>
     <use xlink:href="#TimesNewRomanPSMT-63" transform="translate(150 0)"/>
     <use xlink:href="#TimesNewRomanPSMT-61" transform="translate(194.384766 0)"/>
     <use xlink:href="#TimesNewRomanPSMT-6e" transform="translate(238.769531 0)"/>
     <use xlink:href="#TimesNewRomanPSMT-20" transform="translate(288.769531 0)"/>
     <use xlink:href="#TimesNewRomanPSMT-45" transform="translate(313.769531 0)"/>
     <use xlink:href="#TimesNewRomanPSMT-6e" transform="translate(374.853516 0)"/>
     <use xlink:href="#TimesNewRomanPSMT-64" transform="translate(424.853516 0)"/>
     <use xlink:href="#TimesNewRomanPSMT-2d" transform="translate(474.853516 0)"/>
     <use xlink:href="#TimesNewRomanPSMT-74" transform="translate(508.154297 0)"/>
     <use xlink:href="#TimesNewRomanPSMT-6f" transform="translate(535.9375 0)"/>
     <use xlink:href="#TimesNewRomanPSMT-2d" transform="translate(585.9375 0)"/>
     <use xlink:href="#TimesNewRomanPSMT-45" transform="translate(619.238281 0)"/>
     <use xlink:href="#TimesNewRomanPSMT-6e" transform="translate(680.322266 0)"/>
     <use xlink:href="#TimesNewRomanPSMT-64" transform="translate(730.322266 0)"/>
     <use xlink:href="#TimesNewRomanPSMT-20" transform="translate(780.322266 0)"/>
     <use xlink:href="#TimesNewRomanPSMT-44" transform="translate(805.322266 0)"/>
     <use xlink:href="#TimesNewRomanPSMT-69" transform="translate(877.539062 0)"/>
     <use xlink:href="#TimesNewRomanPSMT-73" transform="translate(905.322266 0)"/>
     <use xlink:href="#TimesNewRomanPSMT-74" transform="translate(944.238281 0)"/>
     <use xlink:href="#TimesNewRomanPSMT-61" transform="translate(972.021484 0)"/>
     <use xlink:href="#TimesNewRomanPSMT-6e" transform="translate(1016.40625 0)"/>
     <use xlink:href="#TimesNewRomanPSMT-63" transform="translate(1066.40625 0)"/>
     <use xlink:href="#TimesNewRomanPSMT-65" transform="translate(1110.791016 0)"/>
    </g>
    <!-- p = 2.86e-45 -->
    <g transform="translate(162.489362 39.290625) scale(0.2 -0.2)">
     <defs>
      <path id="TimesNewRomanPSMT-70" d="M -6 2578 
L 875 2934 
L 994 2934 
L 994 2266 
Q 1216 2644 1439 2795 
Q 1663 2947 1909 2947 
Q 2341 2947 2628 2609 
Q 2981 2197 2981 1534 
Q 2981 794 2556 309 
Q 2206 -88 1675 -88 
Q 1444 -88 1275 -22 
Q 1150 25 994 166 
L 994 -706 
Q 994 -1000 1030 -1079 
Q 1066 -1159 1155 -1206 
Q 1244 -1253 1478 -1253 
L 1478 -1369 
L -22 -1369 
L -22 -1253 
L 56 -1253 
Q 228 -1256 350 -1188 
Q 409 -1153 442 -1076 
Q 475 -1000 475 -688 
L 475 2019 
Q 475 2297 450 2372 
Q 425 2447 370 2484 
Q 316 2522 222 2522 
Q 147 2522 31 2478 
L -6 2578 
z
M 994 2081 
L 994 1013 
Q 994 666 1022 556 
Q 1066 375 1236 237 
Q 1406 100 1666 100 
Q 1978 100 2172 344 
Q 2425 663 2425 1241 
Q 2425 1897 2138 2250 
Q 1938 2494 1663 2494 
Q 1513 2494 1366 2419 
Q 1253 2363 994 2081 
z
" transform="scale(0.015625)"/>
      <path id="TimesNewRomanPSMT-2e" d="M 800 606 
Q 947 606 1047 504 
Q 1147 403 1147 259 
Q 1147 116 1045 14 
Q 944 -88 800 -88 
Q 656 -88 554 14 
Q 453 116 453 259 
Q 453 406 554 506 
Q 656 606 800 606 
z
" transform="scale(0.015625)"/>
      <path id="TimesNewRomanPSMT-38" d="M 1228 2134 
Q 725 2547 579 2797 
Q 434 3047 434 3316 
Q 434 3728 753 4026 
Q 1072 4325 1600 4325 
Q 2113 4325 2425 4047 
Q 2738 3769 2738 3413 
Q 2738 3175 2569 2928 
Q 2400 2681 1866 2347 
Q 2416 1922 2594 1678 
Q 2831 1359 2831 1006 
Q 2831 559 2490 242 
Q 2150 -75 1597 -75 
Q 994 -75 656 303 
Q 388 606 388 966 
Q 388 1247 577 1523 
Q 766 1800 1228 2134 
z
M 1719 2469 
Q 2094 2806 2194 3001 
Q 2294 3197 2294 3444 
Q 2294 3772 2109 3958 
Q 1925 4144 1606 4144 
Q 1288 4144 1088 3959 
Q 888 3775 888 3528 
Q 888 3366 970 3203 
Q 1053 3041 1206 2894 
L 1719 2469 
z
M 1375 2016 
Q 1116 1797 991 1539 
Q 866 1281 866 981 
Q 866 578 1086 336 
Q 1306 94 1647 94 
Q 1984 94 2187 284 
Q 2391 475 2391 747 
Q 2391 972 2272 1150 
Q 2050 1481 1375 2016 
z
" transform="scale(0.015625)"/>
      <path id="TimesNewRomanPSMT-36" d="M 2869 4325 
L 2869 4209 
Q 2456 4169 2195 4045 
Q 1934 3922 1679 3669 
Q 1425 3416 1258 3105 
Q 1091 2794 978 2366 
Q 1428 2675 1881 2675 
Q 2316 2675 2634 2325 
Q 2953 1975 2953 1425 
Q 2953 894 2631 456 
Q 2244 -75 1606 -75 
Q 1172 -75 869 213 
Q 275 772 275 1663 
Q 275 2231 503 2743 
Q 731 3256 1154 3653 
Q 1578 4050 1965 4187 
Q 2353 4325 2688 4325 
L 2869 4325 
z
M 925 2138 
Q 869 1716 869 1456 
Q 869 1156 980 804 
Q 1091 453 1309 247 
Q 1469 100 1697 100 
Q 1969 100 2183 356 
Q 2397 613 2397 1088 
Q 2397 1622 2184 2012 
Q 1972 2403 1581 2403 
Q 1463 2403 1327 2353 
Q 1191 2303 925 2138 
z
" transform="scale(0.015625)"/>
      <path id="TimesNewRomanPSMT-34" d="M 2978 1563 
L 2978 1119 
L 2409 1119 
L 2409 0 
L 1894 0 
L 1894 1119 
L 100 1119 
L 100 1519 
L 2066 4325 
L 2409 4325 
L 2409 1563 
L 2978 1563 
z
M 1894 1563 
L 1894 3666 
L 406 1563 
L 1894 1563 
z
" transform="scale(0.015625)"/>
     </defs>
     <use xlink:href="#TimesNewRomanPSMT-70"/>
     <use xlink:href="#TimesNewRomanPSMT-20" transform="translate(50 0)"/>
     <use xlink:href="#TimesNewRomanPSMT-3d" transform="translate(75 0)"/>
     <use xlink:href="#TimesNewRomanPSMT-20" transform="translate(131.396484 0)"/>
     <use xlink:href="#TimesNewRomanPSMT-32" transform="translate(156.396484 0)"/>
     <use xlink:href="#TimesNewRomanPSMT-2e" transform="translate(206.396484 0)"/>
     <use xlink:href="#TimesNewRomanPSMT-38" transform="translate(231.396484 0)"/>
     <use xlink:href="#TimesNewRomanPSMT-36" transform="translate(281.396484 0)"/>
     <use xlink:href="#TimesNewRomanPSMT-65" transform="translate(331.396484 0)"/>
     <use xlink:href="#TimesNewRomanPSMT-2d" transform="translate(375.78125 0)"/>
     <use xlink:href="#TimesNewRomanPSMT-34" transform="translate(409.082031 0)"/>
     <use xlink:href="#TimesNewRomanPSMT-35" transform="translate(459.082031 0)"/>
    </g>
   </g>
  </g>
 </g>
 <defs>
  <clipPath id="paa6fd71a7c">
   <rect x="43.477175" y="45.290625" width="339.84" height="245.52"/>
  </clipPath>
 </defs>
</svg>
