<?xml version="1.0" encoding="utf-8" standalone="no"?>
<!DOCTYPE svg PUBLIC "-//W3C//DTD SVG 1.1//EN"
  "http://www.w3.org/Graphics/SVG/1.1/DTD/svg11.dtd">
<svg xmlns:xlink="http://www.w3.org/1999/xlink" width="320.799781pt" height="266.292659pt" viewBox="0 0 320.799781 266.292659" xmlns="http://www.w3.org/2000/svg" version="1.1">
 <metadata>
  <rdf:RDF xmlns:dc="http://purl.org/dc/elements/1.1/" xmlns:cc="http://creativecommons.org/ns#" xmlns:rdf="http://www.w3.org/1999/02/22-rdf-syntax-ns#">
   <cc:Work>
    <dc:type rdf:resource="http://purl.org/dc/dcmitype/StillImage"/>
    <dc:date>2026-06-22T12:12:10.554738</dc:date>
    <dc:format>image/svg+xml</dc:format>
    <dc:creator>
     <cc:Agent>
      <dc:title>Matplotlib v3.10.8, https://matplotlib.org/</dc:title>
     </cc:Agent>
    </dc:creator>
   </cc:Work>
  </rdf:RDF>
 </metadata>
 <defs>
  <style type="text/css">*{stroke-linejoin: round; stroke-linecap: butt}</style>
 </defs>
 <g id="figure_1">
  <g id="patch_1">
   <path d="M 0 266.292659 
L 320.799781 266.292659 
L 320.799781 0 
L 0 0 
z
" style="fill: #ffffff"/>
  </g>
  <g id="axes_1">
   <g id="patch_2">
    <path d="M 83.559781 223.04944 
L 313.599781 223.04944 
L 313.599781 18.28144 
L 83.559781 18.28144 
z
" style="fill: #ffffff"/>
   </g>
   <g id="LineCollection_1">
    <path d="M 83.559781 54.611246 
L 264.052704 54.611246 
" clip-path="url(#p9088d39a92)" style="fill: none; stroke: #e7e7e7; stroke-width: 0.8"/>
   </g>
   <g id="LineCollection_2">
    <path d="M 83.559781 120.66544 
L 264.052704 120.66544 
" clip-path="url(#p9088d39a92)" style="fill: none; stroke: #e7e7e7; stroke-width: 0.8"/>
   </g>
   <g id="LineCollection_3">
    <path d="M 83.559781 186.719634 
L 264.052704 186.719634 
" clip-path="url(#p9088d39a92)" style="fill: none; stroke: #e7e7e7; stroke-width: 0.8"/>
   </g>
   <g id="matplotlib.axis_1">
    <g id="xtick_1">
     <g id="line2d_1">
      <path d="M 83.559781 223.04944 
L 83.559781 18.28144 
" clip-path="url(#p9088d39a92)" style="fill: none; stroke: #e2e2e2; stroke-width: 0.6; stroke-linecap: square"/>
     </g>
     <g id="line2d_2">
      <defs>
       <path id="ma79eb30908" d="M 0 0 
L 0 3.6 
" style="stroke: #000000; stroke-width: 0.85"/>
      </defs>
      <g>
       <use xlink:href="#ma79eb30908" x="83.559781" y="223.04944" style="stroke: #000000; stroke-width: 0.85"/>
      </g>
     </g>
     <g id="text_1">
      <text style="font-size: 12.2px; font-family: 'Minion Pro'; text-anchor: middle" x="83.559781" y="238.836221" transform="rotate(-0 83.559781 238.836221)">0</text>
     </g>
    </g>
    <g id="xtick_2">
     <g id="line2d_3">
      <path d="M 148.259542 223.04944 
L 148.259542 18.28144 
" clip-path="url(#p9088d39a92)" style="fill: none; stroke: #e2e2e2; stroke-width: 0.6; stroke-linecap: square"/>
     </g>
     <g id="line2d_4">
      <g>
       <use xlink:href="#ma79eb30908" x="148.259542" y="223.04944" style="stroke: #000000; stroke-width: 0.85"/>
      </g>
     </g>
     <g id="text_2">
      <text style="font-size: 12.2px; font-family: 'Minion Pro'; text-anchor: middle" x="148.259542" y="238.836221" transform="rotate(-0 148.259542 238.836221)">200</text>
     </g>
    </g>
    <g id="xtick_3">
     <g id="line2d_5">
      <path d="M 212.959303 223.04944 
L 212.959303 18.28144 
" clip-path="url(#p9088d39a92)" style="fill: none; stroke: #e2e2e2; stroke-width: 0.6; stroke-linecap: square"/>
     </g>
     <g id="line2d_6">
      <g>
       <use xlink:href="#ma79eb30908" x="212.959303" y="223.04944" style="stroke: #000000; stroke-width: 0.85"/>
      </g>
     </g>
     <g id="text_3">
      <text style="font-size: 12.2px; font-family: 'Minion Pro'; text-anchor: middle" x="212.959303" y="238.836221" transform="rotate(-0 212.959303 238.836221)">400</text>
     </g>
    </g>
    <g id="xtick_4">
     <g id="line2d_7">
      <path d="M 277.659064 223.04944 
L 277.659064 18.28144 
" clip-path="url(#p9088d39a92)" style="fill: none; stroke: #e2e2e2; stroke-width: 0.6; stroke-linecap: square"/>
     </g>
     <g id="line2d_8">
      <g>
       <use xlink:href="#ma79eb30908" x="277.659064" y="223.04944" style="stroke: #000000; stroke-width: 0.85"/>
      </g>
     </g>
     <g id="text_4">
      <text style="font-size: 12.2px; font-family: 'Minion Pro'; text-anchor: middle" x="277.659064" y="238.836221" transform="rotate(-0 277.659064 238.836221)">600</text>
     </g>
    </g>
    <g id="text_5">
     <text style="font-size: 14px; font-family: 'Minion Pro'; text-anchor: middle" x="198.579781" y="255.732659" transform="rotate(-0 198.579781 255.732659)">Count</text>
    </g>
   </g>
   <g id="matplotlib.axis_2">
    <g id="ytick_1">
     <g id="line2d_9">
      <defs>
       <path id="mf2ac936d84" d="M 0 0 
L -3.6 0 
" style="stroke: #000000; stroke-width: 0.85"/>
      </defs>
      <g>
       <use xlink:href="#mf2ac936d84" x="83.559781" y="54.611246" style="stroke: #000000; stroke-width: 0.85"/>
      </g>
     </g>
     <g id="text_6">
      <text style="font-size: 12.2px; font-family: 'Minion Pro'; text-anchor: end" x="76.459781" y="58.954637" transform="rotate(-0 76.459781 58.954637)">Glycoproteins</text>
     </g>
    </g>
    <g id="ytick_2">
     <g id="line2d_10">
      <g>
       <use xlink:href="#mf2ac936d84" x="83.559781" y="120.66544" style="stroke: #000000; stroke-width: 0.85"/>
      </g>
     </g>
     <g id="text_7">
      <text style="font-size: 12.2px; font-family: 'Minion Pro'; text-anchor: end" x="76.459781" y="125.008831" transform="rotate(-0 76.459781 125.008831)">Glycosites</text>
     </g>
    </g>
    <g id="ytick_3">
     <g id="line2d_11">
      <g>
       <use xlink:href="#mf2ac936d84" x="83.559781" y="186.719634" style="stroke: #000000; stroke-width: 0.85"/>
      </g>
     </g>
     <g id="text_8">
      <text style="font-size: 12.2px; font-family: 'Minion Pro'" transform="translate(41.859438 185.151743)">Glycan</text>
      <text style="font-size: 12.2px; font-family: 'Minion Pro'" transform="translate(10.358656 198.711662)">compositions</text>
     </g>
    </g>
   </g>
   <g id="LineCollection_4">
    <path d="M 83.559781 42.721492 
L 101.352216 42.721492 
" clip-path="url(#p9088d39a92)" style="fill: none; stroke: #c46b83; stroke-opacity: 0.9; stroke-width: 1.8"/>
   </g>
   <g id="LineCollection_5">
    <path d="M 83.559781 66.501001 
L 187.402898 66.501001 
" clip-path="url(#p9088d39a92)" style="fill: none; stroke: #93aacd; stroke-opacity: 0.9; stroke-width: 1.8"/>
   </g>
   <g id="LineCollection_6">
    <path d="M 83.559781 54.611246 
L 145.671552 54.611246 
" clip-path="url(#p9088d39a92)" style="fill: none; stroke: #f3ce9d; stroke-opacity: 0.9; stroke-width: 1.8"/>
   </g>
   <g id="LineCollection_7">
    <path d="M 83.559781 108.775685 
L 112.027676 108.775685 
" clip-path="url(#p9088d39a92)" style="fill: none; stroke: #c46b83; stroke-opacity: 0.9; stroke-width: 1.8"/>
   </g>
   <g id="LineCollection_8">
    <path d="M 83.559781 132.555195 
L 260.513627 132.555195 
" clip-path="url(#p9088d39a92)" style="fill: none; stroke: #93aacd; stroke-opacity: 0.9; stroke-width: 1.8"/>
   </g>
   <g id="LineCollection_9">
    <path d="M 83.559781 120.66544 
L 166.698974 120.66544 
" clip-path="url(#p9088d39a92)" style="fill: none; stroke: #f3ce9d; stroke-opacity: 0.9; stroke-width: 1.8"/>
   </g>
   <g id="LineCollection_10">
    <path d="M 83.559781 174.829879 
L 117.527156 174.829879 
" clip-path="url(#p9088d39a92)" style="fill: none; stroke: #c46b83; stroke-opacity: 0.9; stroke-width: 1.8"/>
   </g>
   <g id="LineCollection_11">
    <path d="M 83.559781 198.609388 
L 147.289046 198.609388 
" clip-path="url(#p9088d39a92)" style="fill: none; stroke: #93aacd; stroke-opacity: 0.9; stroke-width: 1.8"/>
   </g>
   <g id="LineCollection_12">
    <path d="M 83.559781 186.719634 
L 135.966588 186.719634 
" clip-path="url(#p9088d39a92)" style="fill: none; stroke: #f3ce9d; stroke-opacity: 0.9; stroke-width: 1.8"/>
   </g>
   <g id="patch_3">
    <path d="M 83.559781 223.04944 
L 313.599781 223.04944 
" style="fill: none; stroke: #000000; stroke-width: 0.8; stroke-linejoin: miter; stroke-linecap: square"/>
   </g>
   <g id="PathCollection_1">
    <defs>
     <path id="md3a08cf605" d="M 0 4.301163 
C 1.140682 4.301163 2.234798 3.847965 3.041381 3.041381 
C 3.847965 2.234798 4.301163 1.140682 4.301163 0 
C 4.301163 -1.140682 3.847965 -2.234798 3.041381 -3.041381 
C 2.234798 -3.847965 1.140682 -4.301163 0 -4.301163 
C -1.140682 -4.301163 -2.234798 -3.847965 -3.041381 -3.041381 
C -3.847965 -2.234798 -4.301163 -1.140682 -4.301163 0 
C -4.301163 1.140682 -3.847965 2.234798 -3.041381 3.041381 
C -2.234798 3.847965 -1.140682 4.301163 0 4.301163 
z
" style="stroke: #ffffff; stroke-width: 0.8"/>
    </defs>
    <g clip-path="url(#p9088d39a92)">
     <use xlink:href="#md3a08cf605" x="101.352216" y="42.721492" style="fill: #c46b83; stroke: #ffffff; stroke-width: 0.8"/>
    </g>
   </g>
   <g id="text_9">
    <text style="font-size: 11.2px; font-family: 'Minion Pro'; text-anchor: start" x="107.5456" y="45.364867" transform="rotate(-0 107.5456 45.364867)">55</text>
   </g>
   <g id="PathCollection_2">
    <defs>
     <path id="md76b7dc7ab" d="M 0 4.301163 
C 1.140682 4.301163 2.234798 3.847965 3.041381 3.041381 
C 3.847965 2.234798 4.301163 1.140682 4.301163 0 
C 4.301163 -1.140682 3.847965 -2.234798 3.041381 -3.041381 
C 2.234798 -3.847965 1.140682 -4.301163 0 -4.301163 
C -1.140682 -4.301163 -2.234798 -3.847965 -3.041381 -3.041381 
C -3.847965 -2.234798 -4.301163 -1.140682 -4.301163 0 
C -4.301163 1.140682 -3.847965 2.234798 -3.041381 3.041381 
C -2.234798 3.847965 -1.140682 4.301163 0 4.301163 
z
" style="stroke: #ffffff; stroke-width: 0.8"/>
    </defs>
    <g clip-path="url(#p9088d39a92)">
     <use xlink:href="#md76b7dc7ab" x="187.402898" y="66.501001" style="fill: #93aacd; stroke: #ffffff; stroke-width: 0.8"/>
    </g>
   </g>
   <g id="text_10">
    <text style="font-size: 11.2px; font-family: 'Minion Pro'; text-anchor: start" x="193.596282" y="69.144376" transform="rotate(-0 193.596282 69.144376)">321</text>
   </g>
   <g id="PathCollection_3">
    <defs>
     <path id="me4e2886731" d="M 0 4.301163 
C 1.140682 4.301163 2.234798 3.847965 3.041381 3.041381 
C 3.847965 2.234798 4.301163 1.140682 4.301163 0 
C 4.301163 -1.140682 3.847965 -2.234798 3.041381 -3.041381 
C 2.234798 -3.847965 1.140682 -4.301163 0 -4.301163 
C -1.140682 -4.301163 -2.234798 -3.847965 -3.041381 -3.041381 
C -3.847965 -2.234798 -4.301163 -1.140682 -4.301163 0 
C -4.301163 1.140682 -3.847965 2.234798 -3.041381 3.041381 
C -2.234798 3.847965 -1.140682 4.301163 0 4.301163 
z
" style="stroke: #ffffff; stroke-width: 0.8"/>
    </defs>
    <g clip-path="url(#p9088d39a92)">
     <use xlink:href="#me4e2886731" x="145.671552" y="54.611246" style="fill: #f3ce9d; stroke: #ffffff; stroke-width: 0.8"/>
    </g>
   </g>
   <g id="text_11">
    <text style="font-size: 11.2px; font-family: 'Minion Pro'; text-anchor: start" x="151.864936" y="57.254621" transform="rotate(-0 151.864936 57.254621)">192</text>
   </g>
   <g id="PathCollection_4">
    <g clip-path="url(#p9088d39a92)">
     <use xlink:href="#md3a08cf605" x="112.027676" y="108.775685" style="fill: #c46b83; stroke: #ffffff; stroke-width: 0.8"/>
    </g>
   </g>
   <g id="text_12">
    <text style="font-size: 11.2px; font-family: 'Minion Pro'; text-anchor: start" x="118.221061" y="111.41906" transform="rotate(-0 118.221061 111.41906)">88</text>
   </g>
   <g id="PathCollection_5">
    <g clip-path="url(#p9088d39a92)">
     <use xlink:href="#md76b7dc7ab" x="260.513627" y="132.555195" style="fill: #93aacd; stroke: #ffffff; stroke-width: 0.8"/>
    </g>
   </g>
   <g id="text_13">
    <text style="font-size: 11.2px; font-family: 'Minion Pro'; text-anchor: start" x="266.707012" y="135.19857" transform="rotate(-0 266.707012 135.19857)">547</text>
   </g>
   <g id="PathCollection_6">
    <g clip-path="url(#p9088d39a92)">
     <use xlink:href="#me4e2886731" x="166.698974" y="120.66544" style="fill: #f3ce9d; stroke: #ffffff; stroke-width: 0.8"/>
    </g>
   </g>
   <g id="text_14">
    <text style="font-size: 11.2px; font-family: 'Minion Pro'; text-anchor: start" x="172.892359" y="123.308815" transform="rotate(-0 172.892359 123.308815)">257</text>
   </g>
   <g id="PathCollection_7">
    <g clip-path="url(#p9088d39a92)">
     <use xlink:href="#md3a08cf605" x="117.527156" y="174.829879" style="fill: #c46b83; stroke: #ffffff; stroke-width: 0.8"/>
    </g>
   </g>
   <g id="text_15">
    <text style="font-size: 11.2px; font-family: 'Minion Pro'; text-anchor: start" x="123.72054" y="177.473254" transform="rotate(-0 123.72054 177.473254)">105</text>
   </g>
   <g id="PathCollection_8">
    <g clip-path="url(#p9088d39a92)">
     <use xlink:href="#md76b7dc7ab" x="147.289046" y="198.609388" style="fill: #93aacd; stroke: #ffffff; stroke-width: 0.8"/>
    </g>
   </g>
   <g id="text_16">
    <text style="font-size: 11.2px; font-family: 'Minion Pro'; text-anchor: start" x="153.48243" y="201.252763" transform="rotate(-0 153.48243 201.252763)">197</text>
   </g>
   <g id="PathCollection_9">
    <g clip-path="url(#p9088d39a92)">
     <use xlink:href="#me4e2886731" x="135.966588" y="186.719634" style="fill: #f3ce9d; stroke: #ffffff; stroke-width: 0.8"/>
    </g>
   </g>
   <g id="text_17">
    <text style="font-size: 11.2px; font-family: 'Minion Pro'; text-anchor: start" x="142.159972" y="189.363009" transform="rotate(-0 142.159972 189.363009)">162</text>
   </g>
   <g id="legend_1">
    <g id="PathCollection_10">
     <defs>
      <path id="mbc15b40f07" d="M 0 4.301163 
C 1.140682 4.301163 2.234798 3.847965 3.041381 3.041381 
C 3.847965 2.234798 4.301163 1.140682 4.301163 0 
C 4.301163 -1.140682 3.847965 -2.234798 3.041381 -3.041381 
C 2.234798 -3.847965 1.140682 -4.301163 0 -4.301163 
C -1.140682 -4.301163 -2.234798 -3.847965 -3.041381 -3.041381 
C -3.847965 -2.234798 -4.301163 -1.140682 -4.301163 0 
C -4.301163 1.140682 -3.847965 2.234798 -3.041381 3.041381 
C -2.234798 3.847965 -1.140682 4.301163 0 4.301163 
z
"/>
     </defs>
     <g>
      <use xlink:href="#mbc15b40f07" x="124.134787" y="16.205031" style="fill: #c46b83"/>
     </g>
    </g>
    <g id="text_18">
     <text style="font-style: italic; font-size: 10.6px; font-family: 'Minion Pro'; text-anchor: start" x="134.204787" y="18.987531" transform="rotate(-0 134.204787 18.987531)">Gallus</text>
    </g>
    <g id="PathCollection_11">
     <defs>
      <path id="m1296ac1dbb" d="M 0 4.301163 
C 1.140682 4.301163 2.234798 3.847965 3.041381 3.041381 
C 3.847965 2.234798 4.301163 1.140682 4.301163 0 
C 4.301163 -1.140682 3.847965 -2.234798 3.041381 -3.041381 
C 2.234798 -3.847965 1.140682 -4.301163 0 -4.301163 
C -1.140682 -4.301163 -2.234798 -3.847965 -3.041381 -3.041381 
C -3.847965 -2.234798 -4.301163 -1.140682 -4.301163 0 
C -4.301163 1.140682 -3.847965 2.234798 -3.041381 3.041381 
C -2.234798 3.847965 -1.140682 4.301163 0 4.301163 
z
"/>
     </defs>
     <g>
      <use xlink:href="#m1296ac1dbb" x="177.54885" y="16.205031" style="fill: #93aacd"/>
     </g>
    </g>
    <g id="text_19">
     <text style="font-style: italic; font-size: 10.6px; font-family: 'Minion Pro'; text-anchor: start" x="187.61885" y="18.987531" transform="rotate(-0 187.61885 18.987531)">Anas</text>
    </g>
    <g id="PathCollection_12">
     <defs>
      <path id="m4c2875d7e7" d="M 0 4.301163 
C 1.140682 4.301163 2.234798 3.847965 3.041381 3.041381 
C 3.847965 2.234798 4.301163 1.140682 4.301163 0 
C 4.301163 -1.140682 3.847965 -2.234798 3.041381 -3.041381 
C 2.234798 -3.847965 1.140682 -4.301163 0 -4.301163 
C -1.140682 -4.301163 -2.234798 -3.847965 -3.041381 -3.041381 
C -3.847965 -2.234798 -4.301163 -1.140682 -4.301163 0 
C -4.301163 1.140682 -3.847965 2.234798 -3.041381 3.041381 
C -2.234798 3.847965 -1.140682 4.301163 0 4.301163 
z
"/>
     </defs>
     <g>
      <use xlink:href="#m4c2875d7e7" x="225.493975" y="16.205031" style="fill: #f3ce9d"/>
     </g>
    </g>
    <g id="text_20">
     <text style="font-style: italic; font-size: 10.6px; font-family: 'Minion Pro'; text-anchor: start" x="235.563975" y="18.987531" transform="rotate(-0 235.563975 18.987531)">Columba</text>
    </g>
   </g>
  </g>
 </g>
 <defs>
  <clipPath id="p9088d39a92">
   <rect x="83.559781" y="18.28144" width="230.04" height="204.768"/>
  </clipPath>
 </defs>
</svg>
